<svg xmlns="http://www.w3.org/2000/svg" viewBox="0 0 351.82 40.91"><defs><style>.cls-1,.cls-2{fill:#e6e6e5;}.cls-2{fill-rule:evenodd;}.cls-3{fill:#e5e5e5;}</style></defs><title>资源 3</title><g id="图层_2" data-name="图层 2"><g id="图层_1-2" data-name="图层 1"><rect class="cls-1" x="163.9" width="0.63" height="40.91"/><path class="cls-2" d="M20.46,0A20.46,20.46,0,1,0,40.91,20.46,20.48,20.48,0,0,0,20.46,0Zm20,20.46a20,20,0,1,1-20-20A20,20,0,0,1,40.41,20.46Z"/><path class="cls-2" d="M20.46.76A19.69,19.69,0,1,0,40.15,20.46,19.72,19.72,0,0,0,20.46.76ZM40,20.46A19.51,19.51,0,1,1,20.46,1,19.53,19.53,0,0,1,40,20.46Z"/><path class="cls-2" d="M14.24,2.87c0,.74.65.35,1.09.32.15,0,1.53-.55,1.33,0-.12.35-.57.24-.85.27a3.55,3.55,0,0,0-1,.3c-.3.14-.08.33.16.27A2.18,2.18,0,0,1,15.61,4a3,3,0,0,1,1.56.51c.23.16.87.8.47,1-.25.12-.59-.23-.76-.38A2.25,2.25,0,0,0,16,4.51a1.93,1.93,0,0,0-1.89.38,2.63,2.63,0,0,0-1,1.54c0,.26-.16,1.21-.59.89s.2-1.47.33-1.67a3,3,0,0,1,.31-.37l.41-.47a5.36,5.36,0,0,1,.43-.41c.15-.12.21-.33-.07-.32s-.38.17-.7.3-1.15.9-1.31.45,1-.78,1.38-.92l.27-.1a.67.67,0,0,0,.16-.1.38.38,0,0,0,.09-.29,1.64,1.64,0,0,1-.19-.54A.45.45,0,0,1,14.24,2.87Z"/><path class="cls-2" d="M13.15,25.46l-1.45-.77-.48.84a1.33,1.33,0,0,1,.56,1l2.58,1.38.79-1.38-1.29-.69,4-7.43s0-.06,0-.08L17.21,18s-.07,0-.09,0l-4,7.44Z"/><path class="cls-2" d="M15.53,26H26a.39.39,0,0,1,.39.39v2.41a.39.39,0,0,1-.39.39H15.53a.39.39,0,0,1-.39-.39V26.42a.39.39,0,0,1,.39-.39Zm.13.34h0a.16.16,0,0,0-.16.16v2.14a.21.21,0,0,0,.21.21H25.85a.21.21,0,0,0,.21-.21V26.59a.21.21,0,0,0-.21-.21Z"/><rect class="cls-1" x="14.83" y="14.1" width="3.56" height="0.78"/><rect class="cls-1" x="14.83" y="15.28" width="3.56" height="0.78"/><rect class="cls-1" x="14.83" y="16.46" width="3.56" height="0.78"/><path class="cls-2" d="M28.52,21.66h.22a.1.1,0,0,1,.11.09V22a.37.37,0,0,0,.19-.32V20.62a.37.37,0,0,0-.19-.32v.21a.11.11,0,0,1-.11.09h-.22a.11.11,0,0,1-.12-.09V20.3a.37.37,0,0,0-.19.32v1.06a.37.37,0,0,0,.19.32v-.26a.11.11,0,0,1,.12-.09ZM14.09,18.59c-.13,0-.24,0-.31.11a3.84,3.84,0,0,0-.15,1.48h-.91L12.49,20V18.43c.22-.36.78-.62,1.81-.62h2.23c.07,0,.1.06.08.1l-1.22,2.27H14.09V18.59Zm3.17,2h0l1.28-2.39a.08.08,0,0,0,0-.12L18,17.82H30.29v.89s0,.38-1.11.57l-.32.06v.52a.6.6,0,0,1,.54.6v1.42a.6.6,0,0,1-.54.6v.79a.6.6,0,0,1,.54.6v1.39a.6.6,0,0,1-.6.6h-.34a.6.6,0,0,1-.6-.6V23.85a.6.6,0,0,1,.54-.6v-.79a.6.6,0,0,1-.54-.6V20.45a.6.6,0,0,1,.54-.6v-.46A3.74,3.74,0,0,0,26,20.54h-.78a3.27,3.27,0,0,0-.68.46,2.35,2.35,0,0,0-.63.83h-.27a1.38,1.38,0,0,0-.25.2h-.06a.53.53,0,0,0-.14.41c.06.39.18.48.54.78a10.61,10.61,0,0,1,1.28,1.32c.23.31.26.75.08.87a.19.19,0,0,1-.11,0H16.42c-.3,0-.3-.54,0-.9a10.56,10.56,0,0,1,1.28-1.32c.36-.3.48-.39.54-.78s-.45-.69-.45-.69h-.27a2.28,2.28,0,0,0-.47-.64h3.49a.2.2,0,0,0,.2-.2v-.2a.2.2,0,0,0-.2-.2ZM28.86,23.7v.19a.1.1,0,0,1-.11.09h-.22a.11.11,0,0,1-.12-.09V23.7a.37.37,0,0,0-.19.32v1a.37.37,0,0,0,.37.37h.09a.37.37,0,0,0,.37-.37V24a.37.37,0,0,0-.19-.32Zm-11.17.58a.2.2,0,0,0-.2.2v.2a.2.2,0,0,0,.2.2h6a.2.2,0,0,0,.2-.2v-.2a.2.2,0,0,0-.2-.2ZM18.75,23a.2.2,0,0,0-.2.2v.2a.2.2,0,0,0,.2.2h3.92a.2.2,0,0,0,.2-.2v-.2a.2.2,0,0,0-.2-.2Zm.15-1.23a.2.2,0,0,0-.2.2v.2a.2.2,0,0,0,.2.2h3.62a.2.2,0,0,0,.2-.2v-.2a.2.2,0,0,0-.2-.2ZM22,20.59a.2.2,0,0,0-.2.2V21a.2.2,0,0,0,.2.2h1.63a.2.2,0,0,0,.2-.2v-.2a.2.2,0,0,0-.2-.2Z"/><rect class="cls-1" x="18.68" y="14.1" width="0.61" height="0.78"/><path class="cls-2" d="M15.29,13.39a8.6,8.6,0,0,0,3.29-.95l.32.71a9.58,9.58,0,0,1-3.43,1Z"/><polygon class="cls-2" points="19.41 12.05 18.86 12.31 19.18 13.01 19.74 12.74 19.41 12.05 19.41 12.05"/><rect class="cls-1" x="18.68" y="15.28" width="0.61" height="0.78"/><rect class="cls-1" x="18.68" y="16.46" width="0.61" height="0.78"/><path class="cls-2" d="M23,13l1.13-.62,2.37,4.3-1.13.62L23,13Zm.72.59.14.24.51-.28-.14-.24-.51.28Zm.29.52.14.24.5-.28-.13-.24Z"/><path class="cls-2" d="M21.69,11.78H23v5.47H21.69V11.78Zm-2-.5h1.52v6H19.73v-6Zm.47.77v.27h.58V12Zm0,.59v.27h.58v-.27Zm0,.59v.27h.58v-.27Zm0,.59v.27h.58v-.27Zm1.88-1.19v.27h.58v-.27Zm0,.59v.27h.58v-.27Zm0,.59v.27h.58v-.27Z"/><path class="cls-2" d="M20.45,32.09A11.63,11.63,0,1,1,32.09,20.46,11.65,11.65,0,0,1,20.45,32.09Zm14.17-12-1.11-.15a.15.15,0,0,1-.1-.06c0-.18,0-.36,0-.53a.1.1,0,0,1,.09-.07L34.55,19a.06.06,0,0,0,0-.06c0-.09,0-.2,0-.32h0c0-.12,0-.23,0-.32s0,0,0,0H33.33a.12.12,0,0,1-.1,0l-.11-.53a.12.12,0,0,1,.08-.07l1-.43s0,0,0-.06,0-.19-.08-.31h0c0-.12-.06-.22-.09-.32a.05.05,0,0,0-.06,0l-1.11.15a.12.12,0,0,1-.11,0c-.05-.17-.11-.34-.17-.5a.17.17,0,0,1,.07-.09l1-.55s0,0,0-.06a3.11,3.11,0,0,0-.12-.3h0c-.05-.12-.09-.21-.13-.3s0,0-.06,0l-1.08.3a.12.12,0,0,1-.12,0c-.07-.16-.15-.31-.23-.46a.12.12,0,0,1,.06-.11l.89-.68a0,0,0,0,0,0-.06l-.16-.28h0l-.17-.28s0,0-.06,0l-1,.43a.13.13,0,0,1-.12,0l-.28-.42a.11.11,0,0,1,0-.12l.79-.79s0,0,0-.07l-.2-.26h0l-.19-.26s-.05,0-.06,0l-1,.56a.13.13,0,0,1-.13,0c-.11-.12-.22-.25-.33-.38a.13.13,0,0,1,0-.12l.69-.89s0,0,0-.07l-.22-.23h0c-.08-.09-.16-.16-.23-.22a0,0,0,0,0-.07,0l-.89.69a.13.13,0,0,1-.12,0l-.37-.33a.12.12,0,0,1,0-.13l.56-1a0,0,0,0,0,0-.06l-.26-.2h0L28.84,9s-.05,0-.07,0L28,9.79a.13.13,0,0,1-.12,0l-.43-.29a.12.12,0,0,1,0-.12l.43-1s0,0,0-.06l-.28-.17h0L27.27,8a0,0,0,0,0-.07,0l-.68.88a.11.11,0,0,1-.11.06L26,8.72a.11.11,0,0,1,0-.12l.3-1.08s0,0,0-.06l-.3-.13h0l-.3-.12a0,0,0,0,0-.06,0L25,8.2a.11.11,0,0,1-.09.07l-.5-.17a.11.11,0,0,1,0-.11l.15-1.11s0,0,0,0l-.32-.09h0l-.31-.08s-.05,0-.06,0l-.43,1a.12.12,0,0,1-.08.08l-.53-.11a.12.12,0,0,1,0-.1V6.47s0,0,0,0l-.32-.05h0l-.32,0s-.05,0-.05,0l-.29,1.08a.12.12,0,0,1-.07.09l-.53,0a.13.13,0,0,1,0-.1l-.15-1.11s0,0-.05,0h-.67s0,0,0,0l-.15,1.11a.13.13,0,0,1-.06.1l-.54,0a.13.13,0,0,1-.06-.09L19,6.37s0,0-.05,0l-.32,0h0l-.32.05a0,0,0,0,0,0,0V7.59a.1.1,0,0,1,0,.1l-.53.11a.11.11,0,0,1-.08-.08l-.42-1a0,0,0,0,0-.06,0l-.32.08h0l-.31.09s0,0,0,0L16.57,8a.12.12,0,0,1,0,.11L16,8.27a.12.12,0,0,1-.09-.07l-.56-1a0,0,0,0,0-.06,0l-.3.12h0l-.3.13s0,0,0,.06L15,8.6a.14.14,0,0,1,0,.12l-.47.23a.11.11,0,0,1-.11-.06L13.71,8a0,0,0,0,0-.06,0l-.28.16h0l-.28.17s0,0,0,.06l.43,1a.11.11,0,0,1,0,.12l-.42.29a.13.13,0,0,1-.12,0L12.14,9a0,0,0,0,0-.07,0l-.26.2h0l-.25.2a0,0,0,0,0,0,.06l.56,1a.14.14,0,0,1,0,.13c-.13.1-.25.22-.37.33a.14.14,0,0,1-.13,0l-.89-.69a0,0,0,0,0-.06,0l-.23.22h0l-.22.23a0,0,0,0,0,0,.07l.69.89a.12.12,0,0,1,0,.12l-.32.38a.13.13,0,0,1-.13,0l-1-.56a0,0,0,0,0-.06,0l-.2.26h0L9,12.07s0,0,0,.07l.8.79a.13.13,0,0,1,0,.12c-.1.14-.2.27-.29.42a.14.14,0,0,1-.12,0l-1-.43s0,0-.06,0l-.17.28h0a2.86,2.86,0,0,0-.16.28s0,.05,0,.06l.9.68a.12.12,0,0,1,.05.11L8.71,15a.12.12,0,0,1-.12,0l-1.08-.3a.05.05,0,0,0-.06,0c0,.1-.08.19-.12.3h0c0,.11-.09.21-.12.3a0,0,0,0,0,0,.06l1,.55a.12.12,0,0,1,.07.09c-.06.17-.12.33-.17.5a.11.11,0,0,1-.11,0l-1.11-.15a0,0,0,0,0-.05,0l-.09.32h0c0,.12-.06.22-.08.31s0,.05,0,.06l1,.43a.11.11,0,0,1,.08.07c0,.18-.07.35-.1.53a.12.12,0,0,1-.11,0H6.46s0,0,0,0,0,.2-.05.32h0c0,.12,0,.23,0,.32s0,0,0,.06l1.08.29a.13.13,0,0,1,.1.07c0,.17,0,.35,0,.53a.12.12,0,0,1-.1.06l-1.11.15s0,0,0,0,0,.21,0,.33h0c0,.12,0,.22,0,.32s0,0,0,0L7.4,21a.12.12,0,0,1,.1.06c0,.18,0,.35,0,.53a.13.13,0,0,1-.1.06l-1.08.29s0,0,0,.06,0,.2,0,.32h0a2.93,2.93,0,0,0,.05.32s0,0,0,0H7.58a.14.14,0,0,1,.11,0c0,.18.06.35.1.53a.11.11,0,0,1-.08.07l-1,.43s0,0,0,.06l.08.31h0l.09.32a0,0,0,0,0,.05,0L8,24.34a.12.12,0,0,1,.11,0c.05.17.11.34.17.51a.1.1,0,0,1-.07.09l-1,.56a0,0,0,0,0,0,.06c0,.09.07.19.12.3h0c0,.12.09.21.13.3a0,0,0,0,0,.06,0l1.08-.29a.12.12,0,0,1,.12,0l.23.46a.12.12,0,0,1-.06.11L8,27.21a0,0,0,0,0,0,.07l.16.28h0l.17.28a0,0,0,0,0,.06,0l1-.43a.13.13,0,0,1,.12,0l.29.42a.13.13,0,0,1,0,.12L9,28.78s0,0,0,.07l.19.26h0l.2.26a0,0,0,0,0,.06,0l1-.55a.12.12,0,0,1,.13,0l.32.37a.13.13,0,0,1,0,.12l-.69.89a0,0,0,0,0,0,.06l.22.23h0l.23.22a0,0,0,0,0,.06,0l.89-.68a.12.12,0,0,1,.12,0l.38.33a.12.12,0,0,1,0,.13l-.56,1s0,0,0,.07l.26.2h0l.27.19s0,0,.06,0l.79-.79a.13.13,0,0,1,.12,0l.42.29a.13.13,0,0,1,0,.12l-.43,1a.05.05,0,0,0,0,.06l.28.17h0l.28.16a0,0,0,0,0,.06,0l.67-.89a.11.11,0,0,1,.11-.06l.46.23a.12.12,0,0,1,0,.12l-.29,1.07s0,0,0,.06l.3.13h0l.3.12s.05,0,.06,0l.56-1a.1.1,0,0,1,.09-.07l.51.17a.12.12,0,0,1,0,.11L16.42,34s0,0,0,.05l.32.09h0l.31.08s.05,0,.06,0l.43-1a.11.11,0,0,1,.07-.07l.53.1a.12.12,0,0,1,0,.1v1.12s0,0,0,0l.32,0h0l.32,0a.06.06,0,0,0,.06,0l.29-1.08a.11.11,0,0,1,.06-.09l.54,0a.15.15,0,0,1,.06.1l.15,1.11s0,0,0,0h.67a.07.07,0,0,0,.05,0L21,33.51a.15.15,0,0,1,0-.1l.53,0a.13.13,0,0,1,.07.09l.29,1.08s0,0,.05,0l.32,0h0l.33,0s0,0,0,0V33.33a.12.12,0,0,1,0-.1l.53-.1a.12.12,0,0,1,.08.07l.43,1a0,0,0,0,0,.06,0l.32-.08h0l.31-.09s0,0,0-.05l-.15-1.1a.14.14,0,0,1,0-.11l.5-.17a.12.12,0,0,1,.09.07l.56,1a0,0,0,0,0,.07,0l.3-.12h0l.3-.13s0,0,0-.06l-.3-1.07a.13.13,0,0,1,0-.12l.47-.23a.11.11,0,0,1,.1.06l.69.89a0,0,0,0,0,.06,0l.29-.16h0l.28-.17s0,0,0-.06l-.43-1a.12.12,0,0,1,0-.12l.43-.29a.13.13,0,0,1,.12,0l.79.79s0,0,.07,0l.26-.19h0l.25-.2a.05.05,0,0,0,0-.07l-.56-1a.11.11,0,0,1,0-.13c.13-.1.25-.22.37-.33a.14.14,0,0,1,.13,0l.89.68s0,0,.06,0l.24-.22h0l.23-.23a0,0,0,0,0,0-.06l-.68-.89a.12.12,0,0,1,0-.12l.33-.37a.12.12,0,0,1,.13,0l1,.55s0,0,.06,0l.2-.26h0l.2-.26s0-.05,0-.07L31.13,28a.12.12,0,0,1,0-.12l.28-.42a.12.12,0,0,1,.12,0l1,.43a0,0,0,0,0,.06,0l.17-.28h0c.06-.1.12-.19.16-.28s0-.05,0-.07L32,26.53a.13.13,0,0,1-.06-.11c.08-.15.16-.31.23-.46a.12.12,0,0,1,.12,0l1.08.29a0,0,0,0,0,.06,0c0-.09.09-.19.13-.3h0c0-.11.09-.21.12-.3s0,0,0-.06l-1-.56a.1.1,0,0,1-.06-.09c.06-.17.12-.33.17-.51a.12.12,0,0,1,.11,0L34,24.5a.05.05,0,0,0,.06,0c0-.09.05-.2.09-.32h0c0-.12.06-.22.08-.31s0-.05,0-.06l-1-.43a.12.12,0,0,1-.08-.07c0-.18.07-.35.11-.53a.12.12,0,0,1,.1,0h1.12s0,0,0,0,0-.2,0-.32h0c0-.11,0-.22,0-.32a.05.05,0,0,0,0-.06l-1.08-.29a.1.1,0,0,1-.09-.06c0-.18,0-.35,0-.53a.15.15,0,0,1,.1-.06l1.11-.14s0,0,0,0v-.32h0v-.33A0,0,0,0,0,34.62,20.08Z"/><path class="cls-2" d="M19.41,28.06a.1.1,0,0,1-.1.09h-1a.1.1,0,0,1-.1-.09v-.21a.1.1,0,0,1,.1-.1h1a.1.1,0,0,1,.1.1v.21Zm-1.21-.88a.1.1,0,0,1,.1-.09h1a.1.1,0,0,1,.1.09v.2a.1.1,0,0,1-.1.09h-1a.1.1,0,0,1-.1-.09v-.2Zm1.54.43h0l0,0h0a.24.24,0,0,0,.13-.22V27a.25.25,0,0,0-.25-.24H17.95a.24.24,0,0,0-.24.24v.31a.24.24,0,0,0,.13.22h0l0,0h0a.24.24,0,0,0-.15.23v.35a.23.23,0,0,0,.22.24h1.76a.23.23,0,0,0,.22-.24v-.35A.24.24,0,0,0,19.74,27.61Z"/><path class="cls-2" d="M17,28.44h-.52V27.21s0,0-.06,0h-.08l-.39.09V27l.41-.1h.06a.76.76,0,0,1,.21,0H17a.06.06,0,0,1,.06.07Z"/><path class="cls-2" d="M5.28,11.94c-.13-.14.13-.54.26-.29s-.14.33-.26.29ZM8,10a5.11,5.11,0,0,0-1.17.21A2,2,0,0,0,6,11c-.1.15-.21.35-.38.2s-.25.06-.4,0S5.08,11.07,5,11s-.3,0-.41,0,0-.33-.12-.39c-.3,0-.37.19-.3.43s-.17.41-.15.66a.24.24,0,0,0,.3,0,.44.44,0,0,1,.2.29c.06.18.14.08.28.08.73,0,.22.87.12,1.22a.92.92,0,0,0,0,.65l.28.54c.17.28,1,.68.7.06-.19-.4-.56-.65-.49-1.13a5.21,5.21,0,0,1,.42-1.5,3.15,3.15,0,0,1,1-1.07,1,1,0,0,1,.6-.26,1.8,1.8,0,0,0,.71,0c.1-.14,0-.4-.1-.51ZM6.75,12.8h0c0,.31-.3.32-.33.22s.14-.42.29-.33a.13.13,0,0,1,0,.07v0Zm-.57-.15c-.15-.22.11-.48.17-.69,0,0,0-.08.1-.09s0,0,.12.06-.25.93-.39.72Zm1.1-1.52c.09,0,.38,0,.42.07.24.29,0,.55-.08.83s-.31.52-.07.93,0,.8-.38.76c-.12-.1,0-.37-.09-.43-.46-.06-.45.78-1.09.53l0,0c-.06-.26.15-.3.21-.47s-.29-.11-.36-.25a2.42,2.42,0,0,1,.47-1.41c.11-.19.28-.34.51-.24s.08.58.21.79c.39,0,.16-.77.26-1l0,0Zm-2.56-.74c-.06,0-.27.22-.28,0s.19-.44.3-.65.27-.41.54-.31a2.09,2.09,0,0,1,.55.38.83.83,0,0,1,.18.56c0,.26-.1.8-.48.68-.11-.3.26-.38.07-.64-.24,0-.15.22-.38.2s.07-.45-.08-.62a.29.29,0,0,0-.25.19c-.05.11-.09.1-.18.16Zm.07,2c.17.25,0,.66-.2.87s-.64.08-.86,0-.51-.28-.34-.57a1,1,0,0,0,.08-.25c0-.22,0-.51.33-.32.11.05-.21.59-.2.66s.07.07.14.09c.3-.16,0-.72.48-.62.15.15-.07.45.07.55s.15-.37.4-.42A.18.18,0,0,1,4.8,12.34Z"/><path class="cls-2" d="M28.12,4.23l0,0a1.5,1.5,0,0,0-.93-.41l-.07,0h0c-.06-.07-.16-.35.06-.27s.25.1.43.16.44.15.58.22h0l0,0h0l.07.05c.19.18.13.37-.14.3Zm-.7.66c.05-.29.43,0,.34.22l0,0A.3.3,0,0,1,27.59,5a2.08,2.08,0,0,1-.17-.16Zm.46.86c-.06.18-.55-.14-.54-.37l0,0c.15,0,.59.21.52.4Zm-.37.8a.35.35,0,0,0,0-.51l0,0a1.83,1.83,0,0,0-.22-.11.23.23,0,0,0-.15,0,.29.29,0,0,0-.29.29c0,.3.41.44.68.43l.07,0Zm-.93-1.26c-.08,0-.35-.18-.31-.29s.18-.14.48.06a.16.16,0,0,1,0,.08c0,.12,0,.23-.2.15ZM26,6c.16.1.51,0,.51-.22,0-.38-.59-.42-.75-.14,0,.08.08.26.24.36Zm.64-1.38c.06-.15.29-.07.32.06s0,0,0,0a.29.29,0,0,1-.29-.07s0,0,0,0Zm-1.6.67c.06-.05.15-.12.33,0l0,.06c.07.52-.73.29-.36-.08Zm-.78.29c.16.07.69-.58.39-.79s-.55.72-.39.79Zm4.45-1.78a5.72,5.72,0,0,0-1.82-.69c-.32-.05-.63.64-.31.82.13.07.63.05.61.26h0c0,.13-.51-.12-.9.1l-.05,0a3.29,3.29,0,0,0-.32.32c-.11.1-.27.33-.44.3a.69.69,0,0,1-.36-.28c.07-.12.24,0,.35-.19s.16-.56.27-.84.61-.22.62-.66c0-.18-.16-.28-.29-.4L26,2.45c-.07,0-.37,0-.32.18s.22.41,0,.46a2.08,2.08,0,0,1-.9-.12,3.3,3.3,0,0,0-.42-.12.18.18,0,0,0-.1,0,.32.32,0,0,0,0,.41h0l0,0,.27,0a1.37,1.37,0,0,1,.49.12h0c.17.08.26.14.08.2h0c-.26.09-.74-.14-1,0l0,0s-.1.19,0,.24A.8.8,0,0,0,24.3,4h.55L25,4l.09,0c.11,0,.21,0,.16.14s-.69.34-.85.3-.35.18-.35.21a2.06,2.06,0,0,1-.09.48c-.09.22-.29.51-.18.75A3.79,3.79,0,0,0,24.81,6l.11,0a4.31,4.31,0,0,1,1,.26l.28.12a5.35,5.35,0,0,1,.89.54c.32.37.82,1,1,.72A1.73,1.73,0,0,0,27.85,7c0-.1.08-.14.13-.2a2.26,2.26,0,0,0,.3-.9c.05-.24.09-.49.15-.73s-.3-.46-.55-.53c0,0-.09-.07-.09-.09,0-.2.4,0,.63.1s.31,0,.35,0,.11-.27.18-.36S28.93,3.89,28.74,3.78Z"/><path class="cls-2" d="M36.32,11.76c0,.32-.35.53-.61.67s-.6-.2-.66-.41-.06-.43,0-.51.26,0,.37-.11a.12.12,0,0,0,0-.07c0-.31.44-.12.68.08a.67.67,0,0,1,.16.34Zm.64,2a3.17,3.17,0,0,1-.09-.48h0a9.88,9.88,0,0,0-.16-1.17c0-.18-.12-.83.19-.82,0,0,.08-.07.08-.09,0-.32-.18-.45-.47-.33a.36.36,0,0,1-.4,0s-.34-.2-.62-.39-.73-.53-.73-.53c-.25-.15-.49-.53-.64-.1.19.38.62.52.92.79.14.13.24.41-.05.31a5,5,0,0,1-.79-.56c-.17-.09-.55-.13-.42.17a.84.84,0,0,0,.4.42c.1,0,.45.16.47.24a.63.63,0,0,1,0,.49c-.13.16-.48-.09-.64-.22l-.18-.11c-.11-.07-.35-.18-.51-.25l-.3-.11c-.18-.05-.73-.19-.62.2l0,0,.35.21c.15.08.81.29,1.06.42a3,3,0,0,1,.69.37.38.38,0,0,1,.13.22,4.71,4.71,0,0,1,.1.65,4.31,4.31,0,0,1-.19,1.15c-.1.3-.36.81.13.83s.47-1.6.5-2c0-.11,0-.6.26-.42s.27.78.31,1.18c0,.11.11.15.21.18a.32.32,0,0,0,.18,0,.76.76,0,0,0,.08-.45,2.22,2.22,0,0,1,0-.88c.07-.15.18-.2.24,0v0a2,2,0,0,1,0,.26,7.48,7.48,0,0,0,.12,1.09c.11.15.33.24.47,0S37,13.88,37,13.79Z"/><path class="cls-2" d="M22.23,27.42a.1.1,0,0,1-.1.09h-1a.1.1,0,0,1-.1-.09v-.23a.1.1,0,0,1,.1-.09h1a.1.1,0,0,1,.1.09v.23Zm.27-.61H20.74a.23.23,0,0,0-.22.24v.52a.23.23,0,0,0,.22.24h1.39a.1.1,0,0,1,.1.09v.16a.1.1,0,0,1-.1.09h-1A.1.1,0,0,1,21,28.1h-.51v.1a.23.23,0,0,0,.22.24h1.76a.23.23,0,0,0,.22-.24V27A.23.23,0,0,0,22.51,26.81Z"/><path class="cls-2" d="M23.85,27.83a.1.1,0,0,1,.1-.09h1a.1.1,0,0,1,.1.09v.23a.1.1,0,0,1-.1.09H24a.1.1,0,0,1-.1-.09v-.23Zm-.27.61h1.76a.23.23,0,0,0,.22-.24v-.52a.23.23,0,0,0-.22-.24H24a.1.1,0,0,1-.1-.09v-.16a.1.1,0,0,1,.1-.09h1a.11.11,0,0,1,.09.05h.51V27a.23.23,0,0,0-.22-.24H23.58a.23.23,0,0,0-.22.24V28.2A.23.23,0,0,0,23.58,28.44Z"/><path class="cls-2" d="M2.52,21.19c0-.12,0-.41,0-.61l.4,0v0a.87.87,0,0,0-.2.59c0,.2.11.32.29.31a.33.33,0,0,0,.28-.18c.12-.17.19-.38.34-.57a.63.63,0,0,1,.52-.27c.19,0,.58.08.61.81,0,.14,0,.35,0,.53l-.39-.06v0a.52.52,0,0,0,.18-.46c0-.24-.15-.36-.29-.35s-.27,0-.48.46-.42.55-.62.56S2.55,21.87,2.52,21.19Z"/><path class="cls-2" d="M4,24.07a7.67,7.67,0,0,0-1.07.23c0-.13,0-.18,0-.27s0-.14-.06-.3c.31,0,.76-.09,1-.13,0-.16,0-.24,0-.36s0-.24-.07-.37a9.36,9.36,0,0,0-1,.21c0-.12,0-.22,0-.27s0-.14-.06-.3c.3,0,.84-.09,1.08-.13s1-.15,1.08-.27h0c0,.13,0,.22,0,.31s0,.19.06.3a6,6,0,0,0-.94.11c0,.18,0,.25.05.37s0,.18.07.36A2.55,2.55,0,0,0,5,23.33H5a3.09,3.09,0,0,0,0,.31c0,.09,0,.22.06.3C4.8,24,4.28,24,4,24.07Z"/><path class="cls-2" d="M5,25.11H4.16a2.19,2.19,0,0,0,.06.22c0,.11.05.15.08.23L5,25.11ZM3.52,26.34c0-.1-.06-.19-.1-.29a4.12,4.12,0,0,0,.7-.37c0-.1-.05-.2-.08-.3l-.09-.27a2.21,2.21,0,0,0-.77.12c0-.11,0-.17-.07-.25S3,24.81,3,24.72a4,4,0,0,0,.48.07l.75,0,.81,0a.53.53,0,0,0,.27,0h0l.08.25c0,.09.07.18.11.28l-.28.16-.63.41L4,26.36a3.19,3.19,0,0,0-.36.31C3.57,26.53,3.54,26.43,3.52,26.34Z"/><path class="cls-2" d="M5.41,28.14c-.14.06-.7.31-.94.45a2.36,2.36,0,0,0-.19-.36c.17-.26.51-.73.66-.94l.45-.62h0l-.58.26a7.54,7.54,0,0,0-.88.5l-.08-.21L3.74,27A8.42,8.42,0,0,0,5,26.54a3.11,3.11,0,0,0,.75-.42h0l.12.29c0,.1.09.2.14.28-.11.13-.37.43-.49.6L5,28H5l.39-.18a4.89,4.89,0,0,0,.9-.52c0,.06.06.15.09.22l.1.2A8.66,8.66,0,0,0,5.41,28.14Z"/><path class="cls-2" d="M6.16,30.42a3.2,3.2,0,0,0-.37.24A3.91,3.91,0,0,1,5.29,30c-.37-.6-.3-1.06.39-1.5a1,1,0,0,1,1.55.38c.14.22.29.49.36.63a2.24,2.24,0,0,0-.41.15v0A.83.83,0,0,0,7,29c-.24-.38-.63-.32-1.08,0-.63.4-.63.69-.41,1,.1.16.2.12.28.07l.2-.13a.73.73,0,0,0,.28-.27h0l.15.26.16.24A3.72,3.72,0,0,0,6.16,30.42Z"/><path class="cls-2" d="M8.08,31.84a7.6,7.6,0,0,0-.8.75l-.17-.22-.21-.23c.25-.18.61-.46.8-.62l-.23-.28L7.23,31c-.27.24-.51.44-.74.69l-.17-.22-.2-.23c.25-.17.67-.51.86-.66s.79-.64.79-.78h0L8,30l.2.22a5.66,5.66,0,0,0-.75.58l.23.29.24.28a2.53,2.53,0,0,0,.66-.67h0l.2.25.2.23C8.72,31.32,8.31,31.65,8.08,31.84Z"/><path class="cls-2" d="M9.45,32.24h0l-.68.4.16.16.19.16c.12-.23.24-.47.34-.71ZM8.83,34l-.24-.2A4,4,0,0,0,9,33.15l-.22-.21-.21-.18a2.17,2.17,0,0,0-.61.5l-.18-.18-.21-.17A4.53,4.53,0,0,0,8,32.71l.67-.34.71-.4c.07,0,.18-.09.21-.17h0l.2.17.23.19c0,.06-.1.17-.16.28s-.24.47-.34.68-.25.54-.33.71a3.33,3.33,0,0,0-.15.45Z"/><path class="cls-2" d="M9.65,34.67l-.26-.18a9,9,0,0,0,.7-.85,3.48,3.48,0,0,0,.58-.93h0l.23.19.27.19a8.86,8.86,0,0,0-.65.79,9.06,9.06,0,0,0-.66,1Z"/><path class="cls-2" d="M12.21,35l-.38.67c-.19.32-.48.46-1.18.15l.07-.2c.29.13.46.13.65-.15.07-.1.23-.37.35-.57a3.84,3.84,0,0,0,.54-1.1h0l.27.17.27.14A6.91,6.91,0,0,0,12.21,35Z"/><path class="cls-2" d="M12.75,36.55l-.25-.13-.29-.13a9.52,9.52,0,0,0,.53-1,3.47,3.47,0,0,0,.4-1h0l.26.14.3.13a8.69,8.69,0,0,0-.49.9,8.9,8.9,0,0,0-.47,1.09Z"/><path class="cls-2" d="M14.59,35.43h0c-.18.22-.33.41-.49.62l.21.09.23.08c0-.25,0-.53.06-.78Zm.09,1.89-.29-.1a4.23,4.23,0,0,0,.13-.78l-.28-.12L14,36.23a2.22,2.22,0,0,0-.38.68l-.23-.1-.26-.09a4.37,4.37,0,0,0,.35-.34l.49-.56.52-.63a.51.51,0,0,0,.13-.23v0l.25.09.28.09a3.08,3.08,0,0,0,0,.32c0,.24,0,.53-.06.75,0,.38,0,.59,0,.79a2.68,2.68,0,0,0,0,.47Z"/><path class="cls-2" d="M16,36.6c-.12.5-.06.88.32,1s.63-.32.73-.75.13-.9-.3-1-.63.3-.74.78Zm1.55.33a1,1,0,0,1-1.28.85c-.54-.13-1-.4-.77-1.3.12-.53.4-1.08,1.29-.87S17.73,36.24,17.57,36.94Z"/><path class="cls-2" d="M20.36,36.36h0a1.75,1.75,0,0,0-.59-.11c0,.07,0,.51-.06,1a7.66,7.66,0,0,0,0,1l-.29,0h-.31a9.37,9.37,0,0,0,.12-1.11c0-.23,0-.66,0-.87a1.83,1.83,0,0,0-.64,0h0a1.93,1.93,0,0,0,.06-.31c.31,0,.57.05.86.07s.62,0,.93,0A1.66,1.66,0,0,0,20.36,36.36Z"/><path class="cls-2" d="M21,37.17c0,.51.2.86.59.83s.51-.48.48-.92-.13-.9-.58-.87-.52.48-.49,1ZM22.56,37c0,.51-.07,1.13-1,1.19-.55,0-1.06-.09-1.12-1,0-.54.07-1.15,1-1.21S22.51,36.32,22.56,37Z"/><path class="cls-2" d="M24.63,36.69c0,.15.15.75.22,1a2.43,2.43,0,0,0-.39.11c-.22-.23-.6-.66-.76-.85l-.5-.58h0l.13.62a7.59,7.59,0,0,0,.29,1l-.23,0-.23.06A8.75,8.75,0,0,0,23,36.73a3.26,3.26,0,0,0-.24-.83h0l.31-.05.3-.07c.1.14.34.45.48.61l.59.66h0l-.08-.42a5.17,5.17,0,0,0-.3-1l.23,0,.22-.06A8.92,8.92,0,0,0,24.63,36.69Z"/><path class="cls-2" d="M27,36.48a3.58,3.58,0,0,0,.15.42,3.85,3.85,0,0,1-.74.33c-.66.23-1.1.05-1.37-.72a1,1,0,0,1,.73-1.43l.69-.21a2.21,2.21,0,0,0,.05.44h0a.83.83,0,0,0-.68,0c-.42.15-.46.54-.28,1,.24.7.52.77.91.64.18-.06.16-.16.13-.26l-.08-.22a.69.69,0,0,0-.19-.33v0l.29-.09.27-.1A3.94,3.94,0,0,0,27,36.48Z"/><path class="cls-2" d="M29.41,34.13c.12.22.26.48.38.7s.2.72-.39,1.05-.9.2-1.13-.19L28,35.13a2.51,2.51,0,0,0-.49-.69h0l.27-.14.27-.17a6.21,6.21,0,0,0,.46.91,3.32,3.32,0,0,0,.39.62.39.39,0,0,0,.47,0c.41-.23.3-.49,0-.92a3.69,3.69,0,0,0-.69-1l.23-.12.21-.13A3.2,3.2,0,0,0,29.41,34.13Z"/><path class="cls-2" d="M31.4,33.21c.09.12.46.61.65.82a2.19,2.19,0,0,0-.31.27c-.29-.11-.83-.33-1.06-.43l-.71-.3h0l.39.5a7.63,7.63,0,0,0,.68.74l-.19.13-.18.15A8.44,8.44,0,0,0,29.93,34a3.2,3.2,0,0,0-.58-.64h0l.26-.18.24-.19c.15.08.5.26.69.34l.82.34h0l-.26-.34a4.71,4.71,0,0,0-.71-.76l.19-.13.17-.14A9.1,9.1,0,0,0,31.4,33.21Z"/><path class="cls-2" d="M32.74,33.38l-.22.22a8.89,8.89,0,0,0-.71-.84A3.34,3.34,0,0,0,31,32h0l.22-.19.23-.23a8.46,8.46,0,0,0,.67.78,8.85,8.85,0,0,0,.85.83Z"/><path class="cls-2" d="M33.05,30.43l.41.7.54.94a2.16,2.16,0,0,0-.24.3L32.7,31.9,32,31.59a1.27,1.27,0,0,0-.36-.1h0a2.47,2.47,0,0,0,.22-.24L32,31a2,2,0,0,0,.28.18c.14.08.39.2.67.32l.52.22h0c-.09-.15-.27-.45-.36-.59a2.52,2.52,0,0,0-.59-.71l.17-.18.16-.19A2.5,2.5,0,0,0,33.05,30.43Z"/><path class="cls-2" d="M35.58,30c-.2.26-.32.43-.44.61l-.38.55a7.94,7.94,0,0,0-.86-.67,3.26,3.26,0,0,0-1-.57h0c.14-.19.33-.44.43-.59l.41-.59A1,1,0,0,0,34,29h0a2.77,2.77,0,0,0-.53.61A7.06,7.06,0,0,0,34,30a3.17,3.17,0,0,0,.32-.52,1.94,1.94,0,0,0,.23.2,2.09,2.09,0,0,0-.37.43l.32.22c.3.21.37.21.49,0a1.66,1.66,0,0,0,.3-.63v0A1.35,1.35,0,0,0,35.58,30Z"/><path class="cls-2" d="M34.48,27.91a1.31,1.31,0,0,0-.1.22l.34.2.31.17.1-.16c.11-.19.09-.38-.2-.54s-.38,0-.45.11Zm2.08.33-.14.28a3.81,3.81,0,0,0-.56-.14.94.94,0,0,0-.45,0c-.08,0-.13.12-.19.25a8.13,8.13,0,0,0,.92.43L36,29.3l-.13.26a10,10,0,0,0-1-.57,4.14,4.14,0,0,0-1-.46h0l.24-.43.27-.5c.21-.39.48-.4.71-.27a.55.55,0,0,1,.26.72h0a.33.33,0,0,1,.36-.18l.31,0a2.13,2.13,0,0,0,.65,0h0Z"/><path class="cls-2" d="M37.07,27.16c0,.11-.18.37-.26.55l-.35-.2v0a.87.87,0,0,0,.42-.45c.08-.18,0-.34-.13-.41a.33.33,0,0,0-.33,0c-.18.11-.33.26-.54.37a.62.62,0,0,1-.59,0c-.18-.07-.49-.32-.21-1,.05-.13.14-.32.22-.48l.32.22v0a.52.52,0,0,0-.36.35c-.09.22,0,.38.12.44s.26.08.62-.22.61-.32.8-.24S37.33,26.53,37.07,27.16Z"/><path class="cls-2" d="M37.6,25.64c0,.1,0,.16-.08.3a10,10,0,0,0-1-.38,3.44,3.44,0,0,0-1.07-.24h0a2.93,2.93,0,0,0,.1-.28c0-.09.06-.2.09-.31a8,8,0,0,0,1,.35,8.52,8.52,0,0,0,1.15.3Z"/><path class="cls-2" d="M36.3,23v0a1.71,1.71,0,0,0-.21.56l1,.22a7.46,7.46,0,0,0,1,.16c0,.13,0,.17-.07.29s0,.17-.05.3a9.52,9.52,0,0,0-1.07-.29L36,24a1.84,1.84,0,0,0-.06.64v0a1.91,1.91,0,0,0-.3-.11c.09-.3.15-.56.21-.84s.13-.61.18-.91A1.64,1.64,0,0,0,36.3,23Z"/><path class="cls-2" d="M36.47,20.77a10.65,10.65,0,0,0,1,.66l.49,0a2.84,2.84,0,0,0,.44,0c0,.12,0,.2,0,.3s0,.15,0,.3a2.23,2.23,0,0,0-.42-.08l-.49,0c-.52.22-1,.44-1.08.5a1.06,1.06,0,0,0-.25.17h0c0-.12,0-.23,0-.34s0-.24,0-.37a.61.61,0,0,0,.23,0c.18-.06.42-.14.8-.31h0a7.4,7.4,0,0,0-.68-.36.77.77,0,0,0-.29-.07c0-.08,0-.14,0-.26a2.29,2.29,0,0,0,0-.25A1.91,1.91,0,0,0,36.47,20.77Z"/><path class="cls-1" d="M47.57,24c-.09.08-.1.25-.08.46a3.3,3.3,0,0,0,.18.78,4.61,4.61,0,0,0,1.16,1.15,1.4,1.4,0,0,0,1.17.38,3,3,0,0,0,1.14-.21,2.22,2.22,0,0,0,.56-.38,3.54,3.54,0,0,0,.41-.48,17.1,17.1,0,0,1,3.69-3.18,4.75,4.75,0,0,1,2.17-1,5.77,5.77,0,0,0,3.08-.91,2,2,0,0,0,.72-.6,1.47,1.47,0,0,0,.23-.79c0-.12,0-.56-.07-.63s-.24,0-.42,0l-.31.07a6.4,6.4,0,0,0-1.87.64l-5.37,3a21,21,0,0,1-5.13,1.89,2.12,2.12,0,0,1-1.17-.66c-.1-.08-.07,0,0,.08s.08.3,0,.34Z"/><path class="cls-1" d="M55.48,6.74c-.08.27,0,.61.42,1.2a6.3,6.3,0,0,1,.69,2.63,55.13,55.13,0,0,1,.25,6.05c0,1,0,1.79-.05,2.62v.08c0,.26,1.07-.31,1.33-.8a6.69,6.69,0,0,0,.4-2.21,7.11,7.11,0,0,1,.19-1.54c.23-.61,1.09-.59,1.62-.68,1.09-.17,3-.33,3.67-1.17a1.61,1.61,0,0,0,.52-1.26,3.21,3.21,0,0,0-.16-.65c-.32-.83-5.09,2.49-5.49,1.57A5.63,5.63,0,0,1,59,11a7,7,0,0,0,.18-2.46,4.1,4.1,0,0,0-1.28-2A3.58,3.58,0,0,0,56.06,6a2.48,2.48,0,0,0-.58.72"/><path class="cls-1" d="M92.34,15.23h0a2.38,2.38,0,0,1,1.06.53,5.78,5.78,0,0,1,.87.85c.23.19.32.36.44.35a1.24,1.24,0,0,0,.27-.43l.42-.88a1.75,1.75,0,0,0,.19-.69c.18-.06.6.44.79.5s.31.3.48.5.44.5.44.79a2.56,2.56,0,0,1-.21.86c-.12.13-.3.2-.5.38s-.26.29-.26.4a.76.76,0,0,0,.16.42c.08.1.19.19.27.3l.41.6v0c.12.13.21.29.35.42a5.23,5.23,0,0,1,.5.7,7.39,7.39,0,0,0,.81,1L100,23a4.94,4.94,0,0,0,1.37.75,8,8,0,0,0,1,.29c.2.08.37.12.36.2s-.2.18-.39.29a3.7,3.7,0,0,1-.95.1,1.44,1.44,0,0,0-.31,0l-.28.05a1.54,1.54,0,0,1-.28,0l-.22.06c-.22.08-.44.1-.66.16a2.88,2.88,0,0,1-.75-.15c-.28-.15-.53-.25-.76-.41A3.5,3.5,0,0,1,97,22.94l-.43-.9a7.55,7.55,0,0,1-.43-.8c-.3-.54-.59-1.28-.86-1.68-.34-.11-.71.79-.9,1s-.27.4-.42.58a9,9,0,0,1-1.17,1.15,12.77,12.77,0,0,1-1.2.92,15.5,15.5,0,0,1-1.67.89,3.19,3.19,0,0,1-2,.48,1.42,1.42,0,0,1-.48-.09,5.42,5.42,0,0,0,1.25-.35,4,4,0,0,0,1.53-.95,9.14,9.14,0,0,0,.87-.89c.34-.36.68-.68,1-1.07l.76-.93.57-.92h0l.1-.18a3.83,3.83,0,0,0,.34-.49,2.8,2.8,0,0,0,.44-.77,6,6,0,0,0-1-1.43c-.18-.18-.29-.5-.51-.71,0-.12-.31-.38-.42-.56M94,11.72h0a3.82,3.82,0,0,1-.84.71c-.08.05-.49.47-.51.49-.27.34-.28.24-.55.46a2.55,2.55,0,0,1-.26.24c-.18.1-.21.2-.36.37a1.26,1.26,0,0,0-.29.64c0,.14.13.25.32.26s.54-.27.87-.42a10.12,10.12,0,0,1,1.07-.53,4.47,4.47,0,0,0,.44-.1,5.88,5.88,0,0,0,1.93-1.12,7.93,7.93,0,0,0,.7-.85c.18-.17.56-.4.68-.15a.62.62,0,0,1-.06.66.78.78,0,0,0-.19.51,6.36,6.36,0,0,0,.66,0c.09,0,.42-.13.49-.05a.7.7,0,0,0,.52.09.91.91,0,0,0,.21-1.47c-.1-.07-.67-.13-.86-.23a2.58,2.58,0,0,0-1.72.27,8.44,8.44,0,0,0-1,.64,3.4,3.4,0,0,1-.58.24,5.58,5.58,0,0,0-.55.18c-.09,0-.29.06-.24,0s.11-.16.12-.24A.64.64,0,0,0,94,12,1.12,1.12,0,0,1,94,11.72Zm.35-5.8A4.18,4.18,0,0,1,96,6.36c.18.11.52.22.75.33a1.22,1.22,0,0,1,.68,1.25c0,.12-.32.44.09.23A2.27,2.27,0,0,1,98.14,8a5.41,5.41,0,0,0,1.07-.25c.08-.36.37-.27.69-.25a4.12,4.12,0,0,1,.57,0c.12,0,.32,0,.47,0s.49.26.39.59-.59.34-1,.45a7.08,7.08,0,0,0-1.82.76,9.59,9.59,0,0,1-1.58.64c-.2.06-.37.09-.35,0a4.62,4.62,0,0,1,.56-.52.65.65,0,0,0,.13-.2,2,2,0,0,0-.54.14L96,9.63,94.77,10c-.27.07-.5.11-.85.18l-.49.05-.56.06c-.07,0-.17-.06-.15-.07l1.1-.48a2.75,2.75,0,0,0,.44-.29A2.93,2.93,0,0,0,94.6,9l.2-.23c.07-.08.07-.16.11-.26s.22-.3.22-.46a2.63,2.63,0,0,0-.36-1.35A1.59,1.59,0,0,0,94.32,5.92Z"/><path class="cls-1" d="M132.55,5.92a3.6,3.6,0,0,1-.46,1.59l-.58,1.32-.78,1.76a7.15,7.15,0,0,0-.51.87c-.25.5-.42.82-.54,1.07a5.6,5.6,0,0,1-1.15.21,12.58,12.58,0,0,1-2.44-.25,4.66,4.66,0,0,0,.31.43,3.12,3.12,0,0,0,.43.6,12.84,12.84,0,0,1,1,.82,1.47,1.47,0,0,0,.4.22,4.57,4.57,0,0,1-.72,1.41,11.74,11.74,0,0,1-.76,1.21c-.31.5-.65,1.1-1,1.54a29.36,29.36,0,0,1-3.58,4.13c-.12.11-.35.22-.47.34s-.35.29-.52.46c-.46.59-2.07,1.25-1.91,1.27.5.25,1.71-.4,2.48-.81a16.72,16.72,0,0,0,1.78-1.1c.33-.21.58-.39.85-.58a12.76,12.76,0,0,0,2.4-2.14l.84-1.05,1.22-1.6c.37,0,1,.92,1.32,1.41a8,8,0,0,1,.78,1.43,8.47,8.47,0,0,0,.8,1.4,4,4,0,0,0,.78.64c.12.06.22.2.32.25a1.88,1.88,0,0,0,.66.06,1.27,1.27,0,0,0,1-.5,2.67,2.67,0,0,1,.6-.64c.12-.15,1.67-.47,1.5-.91,0-.06-.35,0-.49,0a2.35,2.35,0,0,0-.66,0c-.32,0-.64,0-1.06-.07a3.46,3.46,0,0,1-1.21-.34c-.13-.06-.32-.17-.57-.31a30.62,30.62,0,0,1-2.45-2c-.35-.24-.62-.46-1-.73l.47-.85c.41-.57.79-1.47,1.23-2,.11-.13.34-.29.41-.4a11,11,0,0,1,1.57-.51,7,7,0,0,0,2.31-1.14c.15-.13.3-.46.25-.53s-.56-.24-.71-.3l-.92,0c-.15,0-.27,0-.46-.08-.1.14.16.27-.24.35-.1,0-1.12.25-1.12.13a14.76,14.76,0,0,1,1-2.3,9.51,9.51,0,0,1,.75-1.5,2.24,2.24,0,0,0,.09-1.23,2.09,2.09,0,0,0-1.3-1"/><path class="cls-1" d="M84.45,14c-.28,0-.53,0-.69.17a1,1,0,0,1-.48.43l-.5.16c-.25.07-.44.08-.42-.07a11.06,11.06,0,0,1,.11-1.2,3.84,3.84,0,0,0,.4-1.36c0-.42-.19-.78-.83-.87h0l-.15,0-.42-.07h0a2.23,2.23,0,0,0-1.06.65,3,3,0,0,1-.82.58l-.31.12A10.26,10.26,0,0,1,81.49,10c.21-.16.46-.36.71-.58a3.11,3.11,0,0,1,1.14-.68c.27-.11.54-.24.82-.33a2,2,0,0,0,.6-.29.59.59,0,0,0,.07-.65,1.05,1.05,0,0,0-.51-.53.6.6,0,0,0-.67.07,7,7,0,0,1-3.06,1.52.1.1,0,0,1-.09,0A1,1,0,0,1,80.45,8c0-.2,0-.46,0-.69a.11.11,0,0,0,0-.07,1.89,1.89,0,0,0-1.32-.21c-.36.12-.36.54-.36,1a2,2,0,0,1-.16,1,1.44,1.44,0,0,1-.71.6,1.6,1.6,0,0,0-.14.95c.08.17.52.13.67.12a2.34,2.34,0,0,1,.42,0c.33.12.74-.21,1-.39a2.46,2.46,0,0,1,.59-.32c.14,0,.24,0,.27.14s-.05.16-.15.25a17,17,0,0,0-1.64,2c-.23.31-.43.56-.51.66s0,.13-.16.25a2.51,2.51,0,0,1-1.32.63c-.08,0-.18,0-.2,0,0,.36.37.46.52.49s.13,0,.15.1a18.29,18.29,0,0,1-1.16,2l-.05,0a5.45,5.45,0,0,1-1.79.22c-.06,0-.15,0,0,.06a2.34,2.34,0,0,0,.78.29,2.87,2.87,0,0,0,.73,0,8.09,8.09,0,0,1-.68,1.22c-.63,1-1.47,2.32-1.25,3a.72.72,0,0,0,.39.24,7.92,7.92,0,0,0,1.12.17,3.88,3.88,0,0,0,1-.09c.41-.09.81-.27,1.24-.41s1.18-.33,1.33-.35a3.46,3.46,0,0,1,.52,1,6,6,0,0,0,.33.94c.16.15,1.11-.1,1.41-.15.54-.08.71-2.81.71-2.81s.21-.11.34-.21a.7.7,0,0,0,.3-.58c0-.08-.12-.16-.17-.18a.62.62,0,0,0-.43,0,14.62,14.62,0,0,1,.25-2.71l0,0A4.39,4.39,0,0,1,84,15.8a8.47,8.47,0,0,0,.9-.09,1.61,1.61,0,0,0,1-.68,1.06,1.06,0,0,0,.1-.35.45.45,0,0,0-.13-.3c-.32-.33-.94-.3-1.37-.34m-6,0a1.14,1.14,0,0,1,.38.74A2.18,2.18,0,0,1,78.38,16l-.76.17a.11.11,0,0,1-.12-.06c-.12-.3.57-1.55.75-2Zm1.52,7.17a.15.15,0,0,1-.21,0,1.29,1.29,0,0,1-.11-.14,1.7,1.7,0,0,0-.33-.34c.08,0,.75-.24.8-.17A.91.91,0,0,1,79.95,21.21ZM76.71,20c-.42.08-.71.08-.75-.08a3.87,3.87,0,0,1,.38-1.35,10,10,0,0,1,.83-1.75h0s1.21-.21,1.4-.26c.2.29.63.79.54,1.14l0,0c-.05.07-.25.27-.23.34s.14,0,.19,0a6.49,6.49,0,0,1,.69.14,1.22,1.22,0,0,0,.87-.22l.13-.08c-.07.38-.07.71-.13,1.09A36.79,36.79,0,0,1,76.71,20Zm2.85-3.28-.15-.11-.19-.14.23-.05,1-.22a1.46,1.46,0,0,1,.43-.06.08.08,0,0,1,.05.06,1.2,1.2,0,0,1,0,.44c0,.23-.08.54-.13.87l0,.22A5.72,5.72,0,0,0,79.56,16.76Zm1.53-1.52c-.27.1-.58.2-.9.29-.48.14-1,.27-1.45.4a2.33,2.33,0,0,1,.62-.7,1,1,0,0,0,.63-.12.58.58,0,0,0,.26-.37c0-.3,0-.32-.23-.46a10.84,10.84,0,0,0-1.08-.58l.16-.11c.39-.26.81-.54,1.18-.75a2.43,2.43,0,0,1,1-.39s0,0,.05.08a5.33,5.33,0,0,1,0,1.43,5.46,5.46,0,0,1-.19,1.28Z"/><path class="cls-1" d="M72.72,6.2a6.82,6.82,0,0,0-1-.28c-.31.82.48,1.27,1.14,1.64.5.29.94.54.89.91a2.09,2.09,0,0,1-.15.32c-.08.14-.16.3-.21.4s.23-.14.29-.2a1.76,1.76,0,0,1,.66-.42h.06a1.26,1.26,0,0,0,.51.07c.33,0,.68,0,.82-.37a1.91,1.91,0,0,0,.1-.6c0-.92-1-1.07-1.84-1.21a5.85,5.85,0,0,1-.82-.16l-.39-.13"/><path class="cls-1" d="M67.57,22.45c-.18.18-.49.48-.51.75,0,.65.58,1.78,1.34,1.83a1.23,1.23,0,0,0,1-.75c.1-.24.27-.64.36-.87a28.8,28.8,0,0,1,1.43-2.55c.84-1.47,1.59-3,2.39-4.44.2-.42-.13,0-.34.32-.58.87-3.22,4.38-3.71,4.38a1,1,0,0,1-.27-.06.34.34,0,0,1,0-.29c.38-1.25,2.85-5.44,4-6l.28-.08a1.07,1.07,0,0,0,.4-.16.75.75,0,0,0,.26-.55c0-.36-.43-.7-.86-1.06-.19-.16-.39-.33-.58-.51-.77-.77-1.17-.83-1.28-.83-.41,0-.44,1.05-.46,1.34,0,.09,0,.16,0,.19,0,.25.45.66.74.91s.33.28.33.37a1.36,1.36,0,0,1-.09.82,37.6,37.6,0,0,1-2.41,4.13,33.68,33.68,0,0,1-2,3.12"/><path class="cls-1" d="M142.4,13.49c.15.06.27,0,.47-.16.39-.39.31-.77.17-1.26a2.19,2.19,0,0,0-.49-.71,14.17,14.17,0,0,0-1-1.15c-.07-.06-.1-.06-.09,0,.05.61.26,1.24.34,2,.05.46.26,1.16.62,1.29"/><path class="cls-1" d="M151.11,18.83a5.74,5.74,0,0,0-.8-.36c-.44-.21-.78.24-1.15.43a11.54,11.54,0,0,0-1.38.34,8.41,8.41,0,0,0-1.61.65l-2.5,1.23a1,1,0,0,1-.68.09,4.18,4.18,0,0,1-.52-.19.67.67,0,0,0,0,.38c.19.39.22.78.83.76h.28a3.64,3.64,0,0,0,1.75-.71,9.15,9.15,0,0,1,.74-.54c.34-.19.75-.4,1.15-.58a2.15,2.15,0,0,1,0,.63c-.14.73-.19,1.59-.27,2.13s-.06,1.13-.08,1.69c0,.38-.09.69-.25.77a3.92,3.92,0,0,1-.58-.11c-.59-.09-1.41-.2-1.77-.24a4.61,4.61,0,0,1-1.54-.43c-.64-.33-1.11-.61-1.08-.49a5.33,5.33,0,0,0,1.29,1l1.31.81,2,1a3.94,3.94,0,0,1,.58.29c.19.15.34.34.62.37a.74.74,0,0,0,.78-.68l0-1.62c0-.44,0-.87,0-1.29,0-.62-.12-1.26-.12-1.9a3.57,3.57,0,0,0-.57-2.13,3.51,3.51,0,0,1,1.17-.28c.57,0-.6.35-.69.46s.61.21.66.19c.52-.18.55-.07.93-.1s.47-.22.79-.32.83-.09,1-.3,0-.67-.37-.94"/><path class="cls-1" d="M152.89,12.66c-.15.06-1.41.3-1.64.37l-1.53.46c.1-.21.3-.53.44-.83h0a24.82,24.82,0,0,1,3.16-4.8l.72-.9c.12-.15.22-.45.3-.58s.18-.47,0-.59a2.93,2.93,0,0,0-1-.24c-.5.16-1.31.36-2.06.66-.56.22-1.1.42-1.46.6a19.32,19.32,0,0,0-2.54,1.32,2,2,0,0,0-.29-.11c-.14-.08-.35-.11-.32-.13S148,7,148.12,6.81c.46-.3,2.07-1.34,2.1-1.89a2,2,0,0,0-1-1.46,3.13,3.13,0,0,0-.86-.42c.07.33.38.59.38.93a1.45,1.45,0,0,1-.18.48,14.25,14.25,0,0,1-1.49,2.48,7.21,7.21,0,0,1-.62.83.81.81,0,0,1-.44,0c-.29-.07-.33-.06-.31.05a3.9,3.9,0,0,0,.4.76c.07.13.24.31.2.5a7.6,7.6,0,0,1-.48,1.27,3.45,3.45,0,0,1-.27.58.73.73,0,0,1-.49.24c.1-.18.07-.39-.1-.72l-.58-1.13c-.56-.78-1-1.87-1.58-2.2a9.63,9.63,0,0,0,.31,1.13c.11.49.37,1.25.41,1.6s.28.91.34,1.37c0,.24-.16.27-.14.32.13.26.4.28.67.13l.26-.15c0,.13.39.17.37.3a5.29,5.29,0,0,1-.89,1.86c-.34.48-.4.35-.39.47s.36,0,.59-.19l.84-.84c.15-.16.37-.55.51-.69a.41.41,0,0,1,.27.13c.1.09.17.26.31.34a5,5,0,0,0,.56.25c.07,0,.24,0,.29.06s0,.11,0,.16,0,.3,0,.51a1.35,1.35,0,0,0,.06.41l-1.16.54a17.7,17.7,0,0,0-1.62.86,9.69,9.69,0,0,0-2.22,1.82c-.28.29-1.53,1.72-1.87,1.72s1.15-2.29,1.3-2.65.39-.7.47-.92a17,17,0,0,0-1.78,2.75c-.08.21-.47.66-.45.92,0,.56,0,.89.29,1,.15,0,.26-.13.38-.22a4.06,4.06,0,0,0,1.34-1.37,6.08,6.08,0,0,1,3.4-3.18l1.51-.62.63-.22a.75.75,0,0,0,.58.24,2.76,2.76,0,0,0,1.1-.71c.28-.06.65-.2.92-.28l1.63-.47a5.59,5.59,0,0,1,1.34-.28c0,.37-1.09.87-1.4,1L149,15.27l-1.17.53c-.13.06-.27.18-.35.21-.51.18-1.08.47-.89.47a5,5,0,0,0,1.39-.28,13,13,0,0,1,2.4-.6,9.34,9.34,0,0,0,2.69-.92c.41-.24,1.17-.81,1.29-1.33a.64.64,0,0,0-.14-.62c-.25-.24-1-.13-1.32-.09M147.22,11h0a1.46,1.46,0,0,0,0,.3c0,.09,0,.32,0,.48a.39.39,0,0,1,0,0,.29.29,0,0,1-.22.05.65.65,0,0,1-.39-.24c0-.14.1-.25.17-.4a5.61,5.61,0,0,1,1.11-1.43c.13-.13.4-.17.45-.29.16-.34-.07-.82-.59-1.12.23-.11.52-.27.68-.23s.75.83.82,1.13a1.33,1.33,0,0,1,0,1.14,3.19,3.19,0,0,1-1.57,1.15l-.34.17C147.26,11.44,147.23,11,147.22,11Zm1.37,2c-.27.27-.43.61-.61.64-.49.07-.54-1.23-.6-1.59.08,0,.16-.08.24-.11a7.72,7.72,0,0,0,1.59-.72c.33-.1.54,0,.85-.55.11-.37.06-.62-.2-1.4a3.36,3.36,0,0,0-1.2-1.48,10.88,10.88,0,0,1,1.29-.64c.27-.08.68-.31,1.11-.45.12-.06,1.78-.83,2.13-.61.08,0,0,.2-.07.37a57.71,57.71,0,0,1-3.72,5.58C149.07,12.45,148.68,13,148.59,13Z"/><path class="cls-1" d="M146.59,18.57a.37.37,0,0,0-.23.28c0,.17.62.15.85,0s1.36-1.21,1.36-1.6c0-.23-.14-.25-.34-.23a3.42,3.42,0,0,0-.74,0c-.09,0-.12.14-.23.21a3,3,0,0,1-.84.35,3.26,3.26,0,0,1-1.89.16c-.3,0,.44.74.8.74a4.08,4.08,0,0,0,1.56-.46c.3-.3-.07.35-.3.46"/><path class="cls-1" d="M108.87,20.83a1.53,1.53,0,0,0-.43-.92s-.62-.54-.64-.41c0,.36.23.16.24,1.28,0,.07-.12.24-.09.37.07.33,1,.23.92-.31"/><path class="cls-1" d="M116.12,14.69h0a10.22,10.22,0,0,0,.54-2.33,1.28,1.28,0,0,0,0-.73c-.2-.38-.82-.45-1.28-.35a4.65,4.65,0,0,0-1.48.8,9.24,9.24,0,0,0-3.07,3.72c-.07.17-.07-.49-.07-.6s.15-.8.06-.71a2.55,2.55,0,0,0-.66,1c-.21,1.28-1.4,3.62,0,4.6.1.07.43-.2.6-.1s.13-.34.22-.49c.25-.47-.09-.9-.14-1.43a7.35,7.35,0,0,1,1.5-3.54l.94-1.21,1.08-.79a3,3,0,0,1,.87-.6c.91-.56-.2,3.52-.27,3.87a11.2,11.2,0,0,0-.39,2.12c-.15.82-.11,1.64-.23,2.46-.08.52-.27.17-.74.13s-.26-1.29-.17-1.65-.1-1.08.26-1.27a4.31,4.31,0,0,0,.82-.85c.27-.6-.23-.81-.71-.93-.69-.17-.11-1.59-.63-1.9s-.39.79-.39.94-.34.34-.68.46c-.14,0,0,0,0,0a.25.25,0,0,1,.2.17c.15.65-.53,1.34-.64,2,0,.13-.48.69-.24.8a1,1,0,0,0,.5.17c.14,0,.26-.17.39-.13a16.91,16.91,0,0,1,0,2.15c0,.37-.33.39,0,.68s.69-.29.78-.39.12-.23.17-.21a1.51,1.51,0,0,1,.71.88.89.89,0,0,0,.55.42c.57-.21.6-1.6.7-2.08s.23-1.29.23-1.75a23.57,23.57,0,0,1,.6-3.35m-3.94,2.89c.29-.34.19.17.12.23S112.13,17.67,112.18,17.57Z"/><path class="cls-1" d="M110.29,10.57a3.85,3.85,0,0,0,1.55-.5c.38-.28.66-.63,1-.92.71-.65,1.42-1.34,2.17-1.93a5.87,5.87,0,0,1,1.09-.75,7.3,7.3,0,0,1-1.58,2.1,1.78,1.78,0,0,0-.11,1c.06.16.18.12.28.22s-1.53,1.55-1.4,1.56.2,0,.27,0a1.31,1.31,0,0,0,1-.27c.16-.09.53-.2.69-.28.57-.31,1.35-.53,1-1.29-.1-.21-.35-.27-.46-.35-.43-.3,0-.48.26-.87.15-.2.5-.59.68-.86.39-.62.81-.74,1-1.36.05-.15.35-.41.32-.56-.16-.76-.46-.63-.94-.62a1.46,1.46,0,0,0-.5,0c-.19.08-.23.26-.42.42a11.43,11.43,0,0,1-1.07.55c-1.18.76-2.33,1.52-3.46,2.34a13.66,13.66,0,0,1-3.17,2.2c0,.53,1.65.22,1.89.17"/><path class="cls-1" d="M118.19,23.56a11.46,11.46,0,0,1-3.68.1c-1.74-.46-3.35-1.08-5.07-1.58A38.61,38.61,0,0,1,105,20.84,3.7,3.7,0,0,0,106.49,22c.7.23,2.19.76,3,1.13a26.64,26.64,0,0,1,3.13,1.8c.78.51,1.67,1.29,2.53,1a3.16,3.16,0,0,0,1-.82c.47-.49,1.17-.51,1.72-.79.32-.17,1.28-.89.37-.82"/><path class="cls-1" d="M107.23,17.83a3.09,3.09,0,0,0,1.07.16c1.11-.63-.93-2.7-1.64-2.68a6,6,0,0,0,.51,2c.13.3-.07.25.06.54"/><path class="cls-1" d="M47.6,33a1.79,1.79,0,0,0,.88,1.42l.27.21c.45.35.54.6.54.88a.65.65,0,0,1-.71.6.74.74,0,0,1-.77-.54l0-.28c0-.14-.08-.16-.12-.16s-.13.16-.13.21,0,.76,0,.76,0,.2.15.25a2.06,2.06,0,0,0,.87.16,1.7,1.7,0,0,0,1-.25A1.23,1.23,0,0,0,50,35.15c0-.58-.26-1-1-1.52l-.16-.12c-.5-.38-.59-.56-.59-.79s.25-.53.63-.53a.68.68,0,0,1,.58.26.63.63,0,0,1,.14.34c0,.14.08.16.12.16s.13-.15.13-.24l0-.59V32c0-.1-.1-.12-.13-.13a2.84,2.84,0,0,0-.78-.1c-.83,0-1.4.47-1.4,1.16"/><path class="cls-1" d="M54.13,32.54h-.76s-.17,0-.17.11,0,.11.15.11l.18,0c.14,0,.17.07.18.21v1.16H51.85V33c0-.16,0-.19.14-.21l.13,0c.14,0,.15-.08.15-.11s-.06-.11-.17-.11H50.7c-.11,0-.17,0-.17.11s0,.11.15.11l.19,0c.14,0,.16.07.18.21v1.91l0,1c0,.16-.05.19-.1.21h-.17c-.1,0-.14.06-.14.11s0,.12.16.12l.65,0h.83c.15,0,.16-.09.16-.12s0-.11-.14-.11l-.25,0c-.11,0-.13-.06-.15-.2l0-1v-.34h1.86v.34l0,1c0,.16,0,.19-.1.21h-.17c-.09,0-.14.06-.14.11s0,.12.17.12l.67,0h.81c.15,0,.16-.09.16-.12a.13.13,0,0,0-.14-.11l-.25,0c-.11,0-.13-.06-.15-.2l0-1V33c0-.17,0-.19.13-.21l.14,0c.15,0,.15-.09.15-.11s-.13-.11-.17-.11Z"/><path class="cls-1" d="M57.25,32.65h0l-1.33,3.09c-.11.26-.18.37-.37.4H55.4a.11.11,0,0,0-.12.11c0,.08.05.12.15.12H56l.57,0c.12,0,.14-.07.14-.12s0-.11-.14-.11h-.08c-.14,0-.14,0-.14-.08l.07-.28.27-.66h1.19l.39,1c-.09,0-.11.09-.11.14s.1.09.18.1h1c.17,0,.28,0,.28-.12s0-.11-.13-.11l-.18,0s-.19,0-.39-.49l-1.3-3c-.05-.11-.09-.19-.21-.19s-.16.11-.21.23m.07,1,.43,1.12h-.87Z"/><path class="cls-1" d="M60.41,32.67h0l0,2.92c0,.42,0,.51-.11.54l-.22,0c-.08,0-.14,0-.14.11s.12.12.18.12h1.21c.12,0,.18,0,.18-.12s0-.11-.15-.11l-.25,0c-.05,0-.12-.09-.13-.48,0,0,0-1.62-.05-1.87l.17.17.94,1,1.49,1.42a.35.35,0,0,0,.25.12c.07,0,.14-.06.14-.22l.06-3.1c0-.28,0-.32.14-.35l.14,0c.1,0,.15-.06.15-.11s-.12-.11-.18-.11H63c-.06,0-.19,0-.19.11s0,.11.14.11l.24,0c.08,0,.13.07.14.38l.05,2.06-1-1L60.9,32.71l-.08-.08c-.11-.11-.18-.18-.26-.18s-.15.09-.15.23"/><path class="cls-1" d="M65.67,32.79a1.89,1.89,0,0,0-.92,1.66c0,1.47,1.25,2,2.42,2a3.23,3.23,0,0,0,1.27-.23c.1-.05.1-.09.1-.23V34.85c0-.16,0-.19.14-.21l.13,0a.12.12,0,0,0,.13-.12c0-.11-.11-.11-.17-.11H67.4c-.05,0-.17,0-.17.11a.13.13,0,0,0,.14.12h.18c.14,0,.17.08.17.21v1c0,.08,0,.1-.06.12a.76.76,0,0,1-.33,0,1.65,1.65,0,0,1-1.71-1.77A1.25,1.25,0,0,1,67,32.85a1.51,1.51,0,0,1,1.06.36.6.6,0,0,1,.16.37c0,.1.07.12.11.12s.13,0,.13-.17l0-.75v-.07a.12.12,0,0,0-.13-.12l-.4-.05a6.2,6.2,0,0,0-.91-.08,2.6,2.6,0,0,0-1.4.33"/><path class="cls-1" d="M72.93,32.54h-.76s-.17,0-.17.11,0,.11.15.11l.18,0c.14,0,.17.07.18.21v1.16H70.64V33c0-.16,0-.19.14-.21l.13,0c.14,0,.16-.08.16-.11s-.06-.11-.17-.11H69.49c-.11,0-.17,0-.17.11s0,.11.15.11l.18,0c.14,0,.17.07.18.21v1.91l0,1c0,.16,0,.19-.1.21h-.17c-.1,0-.14.06-.14.11s0,.12.16.12l.65,0H71c.15,0,.17-.09.17-.12s0-.11-.14-.11l-.25,0c-.1,0-.13-.06-.15-.2l0-1v-.34h1.86v.34l0,1c0,.16-.05.19-.1.21h-.17c-.09,0-.14.06-.14.11s0,.12.17.12l.67,0h.8c.15,0,.17-.09.17-.12a.13.13,0,0,0-.14-.11l-.25,0c-.11,0-.13-.06-.15-.2l0-1V33c0-.17,0-.19.13-.21l.14,0c.15,0,.16-.09.16-.11s-.13-.11-.17-.11Z"/><path class="cls-1" d="M76.1,32.65h0l-1.33,3.09c-.11.26-.18.37-.37.4h-.14a.11.11,0,0,0-.12.11c0,.08.05.12.16.12h.59l.57,0c.12,0,.14-.07.14-.12s0-.11-.14-.11h-.08c-.14,0-.14,0-.14-.08l.07-.28.27-.66h1.19l.39,1c-.09,0-.11.09-.11.14s.09.09.18.1h1c.16,0,.28,0,.28-.12s0-.11-.13-.11l-.18,0s-.19,0-.39-.49l-1.3-3c-.05-.11-.09-.19-.21-.19s-.16.11-.21.23m.07,1,.43,1.12h-.87Z"/><path class="cls-1" d="M79.59,32.54H78.9c-.05,0-.18,0-.18.1s0,.12.14.12l.17,0c.08,0,.12.06.13.2v1.91l0,1.06c0,.15,0,.17-.1.18h-.17c-.1,0-.14.06-.14.11s0,.12.16.12l.67,0h.82c.12,0,.16-.06.16-.12s0-.11-.14-.11l-.25,0c-.11,0-.14-.06-.15-.18l0-1.07V33c0-.16,0-.19.14-.21l.14,0c.12,0,.14-.07.14-.12s0-.1-.17-.1Z"/><path class="cls-1" d="M83.8,31.89H83c-.05,0-.19,0-.19.11s0,.11.16.11l.21,0c.15,0,.19.09.2.28v2.93c0,1.1,0,1.65-.42,2.08l-.26.21c-.1.05-.16.09-.16.16a.11.11,0,0,0,.11.11l.15,0,.29-.15a2.29,2.29,0,0,0,1-1.12,3.24,3.24,0,0,0,.14-1l0-.82V32.4c0-.21.06-.26.16-.27l.16,0c.11,0,.16,0,.16-.11s-.13-.11-.18-.11Z"/><path class="cls-1" d="M86,32.54h-.68s-.18,0-.18.1,0,.12.14.12l.17,0c.08,0,.12.06.13.2v1.91l0,1.06c0,.15,0,.17-.1.18h-.17c-.1,0-.14.06-.14.11s0,.12.16.12l.67,0h.82c.12,0,.16-.06.16-.12s-.05-.11-.14-.11l-.25,0c-.11,0-.13-.06-.15-.18l0-1.07V33c0-.16,0-.19.14-.21l.14,0c.13,0,.14-.07.14-.12s0-.1-.17-.1Z"/><path class="cls-1" d="M89.13,32.65h0L87.8,35.75c-.11.26-.18.37-.38.4h-.14a.11.11,0,0,0-.12.11c0,.08.05.12.15.12h.59l.57,0c.12,0,.14-.07.14-.12s0-.11-.14-.11h-.08c-.14,0-.14,0-.14-.08l.07-.28.27-.66H89.8l.39,1c-.09,0-.11.09-.11.14s.09.09.18.1h1c.16,0,.28,0,.28-.12s0-.11-.13-.11l-.18,0s-.19,0-.39-.49l-1.3-3c-.05-.11-.09-.19-.21-.19s-.16.11-.21.23m.07,1,.43,1.12h-.87Z"/><path class="cls-1" d="M91.42,34.45a2,2,0,0,0,2.15,2,2,2,0,0,0,2.2-2.08,1.89,1.89,0,0,0-2.15-1.9,2,2,0,0,0-2.2,2m.88-.15c0-1.27.73-1.46,1.17-1.46a1.51,1.51,0,0,1,1.41,1.7c0,1.36-.77,1.51-1.11,1.51A1.56,1.56,0,0,1,92.3,34.3Z"/><path class="cls-1" d="M97.62,32s-.12.58-.12.68,0,.16.11.16.1,0,.12-.12l.09-.18c.07-.1.18-.13.51-.14l.8,0v2.31c0,.53,0,1,0,1.22s-.05.25-.12.27l-.2,0c-.13,0-.15.07-.15.11s0,.12.18.12l.73,0h.91c.16,0,.17-.09.17-.12s0-.11-.15-.11l-.29,0c-.11,0-.15-.08-.17-.26s0-.7,0-1.23V32.33h.67c.38,0,.61.11.63.27v.07c0,.06,0,.17.12.17s.11-.11.11-.15l0-.68c0-.07,0-.18-.11-.18l-.1,0h-.06l-.39,0H98.58l-.57,0-.17,0-.09,0c-.09,0-.12.1-.13.16"/><path class="cls-1" d="M101.73,34.45a2,2,0,0,0,2.14,2,2,2,0,0,0,2.2-2.08,1.89,1.89,0,0,0-2.15-1.9,2,2,0,0,0-2.2,2m.87-.15c0-1.27.73-1.46,1.17-1.46a1.51,1.51,0,0,1,1.42,1.7c0,1.36-.77,1.51-1.11,1.51A1.56,1.56,0,0,1,102.61,34.3Z"/><path class="cls-1" d="M106.82,32.67h0l0,2.92c0,.42,0,.51-.11.54l-.22,0c-.08,0-.14,0-.14.11s.12.12.18.12h1.21c.12,0,.18,0,.18-.12s0-.11-.15-.11l-.25,0c-.06,0-.12-.09-.13-.48,0,0,0-1.62-.05-1.87l.17.17.93,1,1.49,1.42a.36.36,0,0,0,.25.12c.07,0,.14-.06.14-.22l.06-3.1c0-.28,0-.32.14-.35l.14,0c.1,0,.15-.06.15-.11s-.12-.11-.18-.11h-1.15c-.06,0-.19,0-.19.11s0,.11.15.11l.24,0c.08,0,.13.07.13.38,0,0,0,1.83,0,2.06l-1-1-1.48-1.48-.09-.09c-.11-.11-.18-.18-.27-.18s-.15.09-.15.23"/><path class="cls-1" d="M112.08,32.79a1.89,1.89,0,0,0-.92,1.66c0,1.47,1.25,2,2.41,2a3.24,3.24,0,0,0,1.27-.23c.1-.05.1-.09.1-.23V34.85c0-.16,0-.19.14-.21l.13,0a.12.12,0,0,0,.13-.12c0-.11-.11-.11-.16-.11h-1.38c-.05,0-.17,0-.17.11a.13.13,0,0,0,.14.12H114c.14,0,.17.08.18.21v1c0,.08,0,.1-.06.12a.76.76,0,0,1-.33,0A1.65,1.65,0,0,1,112,34.28a1.25,1.25,0,0,1,1.39-1.43,1.51,1.51,0,0,1,1.06.36.58.58,0,0,1,.16.37c0,.1.07.12.11.12s.13,0,.13-.17l0-.75v-.07a.12.12,0,0,0-.13-.12l-.4-.05a6.2,6.2,0,0,0-.91-.08,2.61,2.61,0,0,0-1.4.33"/><path class="cls-1" d="M121.35,31.89h-.17l-.66,0c-.05,0-.18,0-.18.11s0,.11.16.11l.19,0c.15,0,.19.09.2.28v1.95a1.94,1.94,0,0,1-.32,1.39,1.08,1.08,0,0,1-.76.29,1,1,0,0,1-.69-.22c-.22-.18-.43-.48-.43-1.38v-2c0-.21.06-.25.16-.27l.16,0c.13,0,.15-.07.15-.11s-.13-.11-.19-.11l-.71,0h-.84c-.06,0-.19,0-.19.11s0,.11.16.11l.21,0c.15,0,.19.09.2.28v2.07a2,2,0,0,0,.53,1.58,1.93,1.93,0,0,0,1.33.42A1.79,1.79,0,0,0,121,36a2.23,2.23,0,0,0,.57-1.79V32.4c0-.21.06-.25.17-.27l.16,0c.11,0,.16,0,.16-.11s-.13-.11-.18-.11Z"/><path class="cls-1" d="M122.6,32.67h0l0,2.92c0,.42,0,.51-.11.54l-.22,0c-.08,0-.14,0-.14.11s.12.12.18.12h1.21c.12,0,.18,0,.18-.12s0-.11-.15-.11l-.25,0c-.05,0-.12-.09-.13-.48l-.05-1.87.17.17.94,1,1.49,1.42a.36.36,0,0,0,.25.12c.06,0,.14-.06.14-.22l.06-3.1c0-.28,0-.32.14-.35l.14,0c.1,0,.15-.06.15-.11s-.12-.11-.18-.11h-1.15c-.06,0-.19,0-.19.11s0,.11.14.11l.24,0c.08,0,.13.07.13.38,0,0,0,1.83,0,2.06l-1-1-1.48-1.48-.09-.09c-.11-.11-.18-.18-.26-.18s-.15.09-.15.23"/><path class="cls-1" d="M128,32.54h-.69c-.05,0-.18,0-.18.1s0,.12.14.12l.17,0c.08,0,.12.06.13.2v1.91l0,1.06c0,.15,0,.17-.1.18h-.17c-.1,0-.14.06-.14.11s0,.12.16.12l.66,0h.82c.12,0,.16-.06.16-.12a.13.13,0,0,0-.14-.11h-.25c-.11,0-.14-.06-.15-.18l0-1.07V33c0-.16,0-.19.14-.21l.14,0c.13,0,.14-.07.14-.12s0-.1-.17-.1Z"/><path class="cls-1" d="M132.77,32.54h-.54c-.07,0-.21,0-.21.11s.06.11.15.11l.18,0s0,0,0,0l0,.16c-.12.31-.69,1.71-.94,2.3l-.81-2.09a1.64,1.64,0,0,1-.11-.35,0,0,0,0,1,0,0l.16,0c.1,0,.14-.06.14-.11s0-.11-.18-.11h-1.39c-.06,0-.19,0-.19.11a.11.11,0,0,0,.12.11l.18,0c.16,0,.22.07.33.33l1.29,3c.09.22.15.33.27.33s.17-.1.3-.4l.29-.65.39-.86.25-.54.36-.79c.13-.31.2-.37.25-.41a.35.35,0,0,1,.2,0c.12,0,.15-.06.15-.11s0-.11-.17-.11Z"/><path class="cls-1" d="M136.18,32.51h-.07l-.17,0h-2.12s-.18,0-.18.11,0,.11.15.11l.19,0c.14,0,.17.07.18.21v1.91l0,1c0,.16,0,.19-.1.21h-.17c-.1,0-.14.06-.14.11s0,.12.16.12h1.23l.94,0c.19,0,.28,0,.33-.17a3.3,3.3,0,0,0,.07-.56c0-.12,0-.18-.11-.18s-.11.08-.12.12c0,.19-.08.28-.18.32a1.4,1.4,0,0,1-.46.06c-.53,0-.62-.08-.63-.35V34.51s.76,0,.76,0c.18,0,.21.09.23.15v.17a.1.1,0,0,0,.11.1s.11,0,.11-.17l0-.32,0-.2,0-.17a.11.11,0,0,0-.1-.11l-.09,0,0,0s-.09,0-.21.06h-.89l0-1.21s.76,0,.76,0c.23,0,.26.07.29.14l0,.15c0,.1.06.13.1.13s.11-.09.12-.12,0-.24,0-.24v-.09l0-.27V32.6a.1.1,0,0,0-.1-.11Z"/><path class="cls-1" d="M137.84,32.54h-.69s-.18,0-.18.11,0,.11.15.11l.18,0c.14,0,.17.07.18.21v1.91l0,1c0,.16,0,.19-.1.21h-.16c-.1,0-.14.06-.14.11s0,.12.16.12h1.42c.15,0,.17-.09.17-.12a.12.12,0,0,0-.13-.11h-.24c-.11,0-.13-.06-.15-.21l0-1v-.07l.43,0,.05,0,.15.22.32.45a2.29,2.29,0,0,0,.71.74,1.17,1.17,0,0,0,.58.11H141c.13,0,.16-.06.16-.12a.12.12,0,0,0-.13-.11h-.11a.93.93,0,0,1-.51-.31c-.29-.29-.62-.7-1-1.22l0,0a1.46,1.46,0,0,0,.69-1.1.92.92,0,0,0-.39-.73,1.85,1.85,0,0,0-1-.22Zm.42,1.88h0V32.93a2.77,2.77,0,0,1,.29,0,.73.73,0,0,1,.46.16.81.81,0,0,1,.25.65.78.78,0,0,1-.3.68c-.07.05-.13.07-.32.07Z"/><path class="cls-1" d="M141.64,33.51c0,.49.24.83.83,1.17l.3.17c.44.26.47.45.47.64a.53.53,0,0,1-.17.4.68.68,0,0,1-.48.17c-.15,0-.63,0-.75-.44l0-.24c0-.13-.09-.14-.11-.14s-.12,0-.12.19,0,.65,0,.65,0,.18.14.22a2.17,2.17,0,0,0,.85.13,1.54,1.54,0,0,0,.89-.21,1.11,1.11,0,0,0,.53-1c0-.51-.28-.9-.91-1.25l-.21-.12c-.47-.26-.51-.42-.51-.59s.32-.47.63-.47a.63.63,0,0,1,.52.21.51.51,0,0,1,.12.29c0,.14.09.15.11.15s.12,0,.12-.22l0-.51v-.08c0-.06,0-.1-.11-.12a3.11,3.11,0,0,0-.74-.08c-.78,0-1.35.44-1.35,1.05"/><path class="cls-1" d="M145.34,32.54h-.68s-.18,0-.18.1,0,.12.14.12l.17,0c.08,0,.12.06.13.2v1.91l0,1.06c0,.15,0,.17-.1.18h-.17c-.1,0-.14.06-.14.11s0,.12.16.12l.67,0h.82c.12,0,.16-.06.16-.12a.13.13,0,0,0-.14-.11h-.25c-.11,0-.14-.06-.16-.18l0-1.07V33c0-.16,0-.19.14-.21l.14,0c.12,0,.14-.07.14-.12s0-.1-.16-.1Z"/><path class="cls-1" d="M146.62,32.6s-.11.52-.11.61.08.14.11.14a.12.12,0,0,0,.12-.11l.08-.15c.05-.08.14-.12.44-.13l.7,0v1.93l0,1c0,.16-.05.19-.1.21h-.17c-.1,0-.14.06-.14.11s0,.12.16.12l.66,0h.83c.11,0,.16-.06.16-.12a.13.13,0,0,0-.14-.11h-.25c-.1,0-.13-.07-.15-.2l0-1V33h.58c.32,0,.53.09.54.23v.05c0,.05,0,.15.12.15s.1-.1.11-.14,0-.6,0-.6,0-.17-.1-.17H150l-.09,0-.34,0h-2.07l-.5,0-.15,0-.08,0c-.09,0-.11.11-.12.14"/><path class="cls-1" d="M153.79,32.54h-.5c-.12,0-.15.06-.15.11s.08.1.13.11.08,0,.08.06l-.07.23-.53.93-.17.29-.79-1.35-.05-.14.06,0c.06,0,.12,0,.12-.11s0-.11-.13-.11h-1.22c-.13,0-.16.06-.16.11s.06.11.14.11l.19.06a1.06,1.06,0,0,1,.31.33c.18.26.87,1.34.9,1.41A.93.93,0,0,1,152,35v.4l0,.49c0,.16-.06.2-.11.21h-.17a.13.13,0,0,0-.14.11c0,.08.06.12.17.12l.66,0h.8c.16,0,.17-.08.17-.12s-.05-.11-.15-.11H153c-.11,0-.15-.07-.16-.21v-1a.85.85,0,0,1,.06-.36,17,17,0,0,1,1-1.56.62.62,0,0,1,.25-.22l.19-.05c.1,0,.16,0,.16-.12s0-.1-.15-.1Z"/><path class="cls-3" d="M191.36,19.58h-7.94v3.28c0,1-.26,1.54-1.08,1.8a13,13,0,0,1-3.74.3,8.15,8.15,0,0,0-.78-1.78c1.4,0,2.8,0,3.22,0s.48-.1.48-.38V19.58h-7.74V17.86h7.74V16.5a17.9,17.9,0,0,0,3-1.5H177.2V13.38h9.38l.38-.1,1.2.94a19.4,19.4,0,0,1-4.74,3v.62h7.94ZM175.86,14h-1.74V9.91h3.16a13.38,13.38,0,0,0-1.58-2.34l1.58-.72a13.21,13.21,0,0,1,1.86,2.66l-.8.4h4a14.62,14.62,0,0,0-1.4-2.8l1.64-.62a12.38,12.38,0,0,1,1.58,3l-1.1.44h3a17.73,17.73,0,0,0,1.88-3.12l1.9.64c-.56.84-1.2,1.74-1.8,2.48h3.1V14h-1.84V11.54H175.86Z"/><path class="cls-3" d="M211.42,22.6v1.8H193.67V22.6h7.92V18h-5.7V16.22h5.7v-4h-4.44a17.3,17.3,0,0,1-2,3.1,12,12,0,0,0-1.7-1.12A17.25,17.25,0,0,0,197.09,7l1.92.44c-.3,1-.66,2-1,3h3.62V6.69h1.92V10.4h7v1.82h-7v4h6.22V18h-6.22v4.6Z"/><path class="cls-3" d="M230.77,22.66c0,1.12-.28,1.68-1,2a11.27,11.27,0,0,1-3.72.34,9.13,9.13,0,0,0-.7-1.86c1.26.08,2.64.06,3,0s.52-.14.52-.52V9.58H216.12V21.5a12.76,12.76,0,0,0,3-5c-.88-1.16-1.82-2.36-2.68-3.38L217.48,12c.7.8,1.44,1.7,2.14,2.6a31.69,31.69,0,0,0,.76-3.88l1.66.18a38.12,38.12,0,0,1-1.16,5.32c.74,1,1.42,2,1.88,2.76l-1.18,1.28c-.34-.64-.82-1.38-1.36-2.18a14.2,14.2,0,0,1-2.74,4.52,14.43,14.43,0,0,0-1.36-1V25h-1.86V7.83h16.51Zm-3.6-1.86a22,22,0,0,0-1.42-2.62,13.33,13.33,0,0,1-2.86,4.58c-.3-.24-1-.78-1.44-1a12.3,12.3,0,0,0,3.18-5.28,37.59,37.59,0,0,0-2.58-3.38l1.14-1c.68.74,1.36,1.58,2,2.44.28-1.18.5-2.44.68-3.76l1.66.18a35.28,35.28,0,0,1-1.1,5.3,22.8,22.8,0,0,1,2,3.4Z"/><path class="cls-3" d="M250.92,9.15a13.91,13.91,0,0,1-3.62,5A14.81,14.81,0,0,0,251.72,16a6,6,0,0,0-.68,1.74,18.46,18.46,0,0,1-5.12-2.5,20.39,20.39,0,0,1-5.34,2.62,6.23,6.23,0,0,0-.72-1.74,18.13,18.13,0,0,0,4.68-2,12.92,12.92,0,0,1-1.9-2.3A14.26,14.26,0,0,1,241,13.54c-.16-.24-.52-.74-.82-1.12a36.94,36.94,0,0,1-3.5,4.8l3.24-.68a10.65,10.65,0,0,0,0,1.62c-4.84,1.16-5.6,1.4-6,1.7-.1-.36-.4-1.24-.6-1.74.46-.1.92-.54,1.54-1.26a24.26,24.26,0,0,0,1.8-2.34,10.12,10.12,0,0,0-2.88.56c-.12-.38-.42-1.28-.62-1.78.38-.1.72-.54,1.16-1.18A25.59,25.59,0,0,0,237,6.71l1.78.86a31.62,31.62,0,0,1-3.16,5.52l2.16-.22c.4-.64.78-1.3,1.12-2l1.34.86a14.49,14.49,0,0,0,3.52-5.34l1.68.5c-.22.54-.48,1.1-.74,1.64h4.86l.3-.06ZM233.33,22.24c1.68-.46,4.24-1.24,6.72-2l.3,1.6c-2.28.8-4.72,1.62-6.6,2.26Zm8.32-4.76h8.62v7.34h-1.8v-1h-5.12v1h-1.7Zm1.7,1.64v3.1h5.12v-3.1Zm.3-8.78a9.28,9.28,0,0,0,2.26,2.76,11,11,0,0,0,2.58-2.88h-4.76Z"/><path class="cls-3" d="M259.16,7.25A39,39,0,0,1,257.54,11v14h-1.7V14a21.15,21.15,0,0,1-1.68,2.24,14.66,14.66,0,0,0-1-1.78,22.53,22.53,0,0,0,4.32-7.7Zm12.27,2.62v1.52H258.76V9.87h5.86a17.91,17.91,0,0,0-1.34-2.6l1.6-.62a17.16,17.16,0,0,1,1.44,2.6l-1.44.62ZM259.9,18.52h10.23v6.42h-1.64v-.66h-7V25H259.9Zm10-4.28h-9.73V12.76h9.73Zm-9.73,1.34h9.73v1.48h-9.73Zm1.3,4.44v2.76h7V20Z"/><path class="cls-3" d="M273.35,23.26a20.71,20.71,0,0,0,2-4.08l1.62.68A25.74,25.74,0,0,1,275,24.08ZM281.86,18h-5.58V8.47h4.62a14.71,14.71,0,0,0,.64-2l2.22.34c-.28.6-.62,1.18-.88,1.68h5.7V18h-6.1a15.42,15.42,0,0,1,2.4,2.82l-1.54.92a13.2,13.2,0,0,0-2.54-3.12ZM284.92,23c1,0,1.18-.28,1.28-2.24a5.17,5.17,0,0,0,1.72.68c-.26,2.64-.82,3.26-2.88,3.26h-4.2c-2.52,0-3.16-.52-3.16-2.32v-3h1.86v3c0,.56.22.66,1.44.66Zm-6.84-11.75h8.64V9.92h-8.64Zm0,2.66h8.64v-1.3h-8.64Zm0,2.7h8.64V15.26h-8.64Zm11.05,2.26a16.13,16.13,0,0,1,2.22,4.06l-1.76.78a16.26,16.26,0,0,0-2.1-4.16Z"/><path class="cls-3" d="M296.52,9.54a11.82,11.82,0,0,1-1.62,2.32,10.76,10.76,0,0,0-1.6-.8,11.23,11.23,0,0,0,2.52-4.5l1.82.34a11.54,11.54,0,0,1-.5,1.3h5.08V9.54h-2.78a8,8,0,0,1,.86,1.6l-1.58.56a10.49,10.49,0,0,0-1.1-2.16Zm6.24,1.12a7.4,7.4,0,0,1,.8,1.52h7.24v3.38h-1.88V13.64H296.12v1.92h-1.78V12.18h7.36c-.18-.4-.38-.82-.58-1.18ZM298.48,20h10.93v5h-1.84v-.58h-9.1V25H296.6V14.68h11.75v4.18h-9.87Zm0-4v1.4h8.08v-1.4Zm0,5.36V23h9.1V21.44ZM311.25,8.21V9.54H308a9.57,9.57,0,0,1,1,1.52l-1.54.68a11.41,11.41,0,0,0-1.42-2.2H305a9.54,9.54,0,0,1-1.16,1.64,9.92,9.92,0,0,0-1.52-.84,8.66,8.66,0,0,0,2-3.76l1.8.32a11.29,11.29,0,0,1-.46,1.3Z"/><path class="cls-3" d="M319.9,20.94c-2.18.76-4.5,1.54-6.3,2.12l-.44-1.9c.72-.2,1.6-.44,2.56-.74V15.34h-2.16V13.62h2.16v-4h-2.36V7.93h6.36V9.65H317.5v4h1.9v1.72h-1.9v4.52c.68-.22,1.4-.44,2.08-.68Zm11.81,1.74v1.7H318.94v-1.7h5.8V20.3H320.4V18.62h4.34V16.56h-4.16v-9h10.23v9h-4.18v2.06h4.44V20.3h-4.44v2.38ZM322.28,11.3h2.62V9.15h-2.62Zm0,3.68h2.62v-2.2h-2.62ZM329,9.15h-2.56V11.3H329Zm0,3.64h-2.56V15H329Z"/><path class="cls-3" d="M342.65,11c-.44,1.1-.94,2.3-1.38,3.26h2.64V16H333.48V14.28h2.82a15.93,15.93,0,0,0-1.14-3.2l1.62-.42a15.29,15.29,0,0,1,1.22,3.2l-1.46.42h3a23.14,23.14,0,0,0,1.32-3.68Zm.8-.42H334V8.95h4A20.26,20.26,0,0,0,337.23,7l1.68-.48a18.14,18.14,0,0,1,1,2.4h3.54Zm-8.94,7H343v7.18h-1.84V24h-4.92v.92h-1.76Zm1.76,1.68v3.1h4.92v-3.1ZM351.47,8.41c-.7,1.86-1.58,4.14-2.38,5.94a6.59,6.59,0,0,1,2.08,4.7,3.17,3.17,0,0,1-1,2.72,2.79,2.79,0,0,1-1.24.44,11.25,11.25,0,0,1-1.66,0,4.51,4.51,0,0,0-.46-1.76,11.52,11.52,0,0,0,1.34.06,1.78,1.78,0,0,0,.78-.2c.38-.24.5-.8.5-1.48,0-1.18-.48-2.6-2.14-4.3.66-1.6,1.4-3.68,1.88-5.22h-2.76V24.94h-1.64V7.67h5.08l.28-.08Z"/><path class="cls-3" d="M174.6,31.16h.89l1.83,3.24.58,1.17h0c0-.57-.11-1.24-.11-1.84V31.16h.82v5.51h-.89l-1.83-3.25-.58-1.15h0c0,.57.11,1.21.11,1.81v2.6h-.82Z"/><path class="cls-3" d="M179.74,34.62a2,2,0,0,1,1.88-2.17c1.09,0,1.68.79,1.68,2a2.22,2.22,0,0,1,0,.43h-2.67a1.24,1.24,0,0,0,1.27,1.26,1.75,1.75,0,0,0,1-.31l.3.55a2.5,2.5,0,0,1-1.39.43A2,2,0,0,1,179.74,34.62Zm2.82-.37c0-.71-.32-1.12-.92-1.12a1.12,1.12,0,0,0-1.06,1.12Z"/><path class="cls-3" d="M184.32,35.33V33.25h-.6V32.6l.64,0,.1-1.14h.73v1.14h1.07v.69h-1.07v2.09c0,.49.17.75.6.75a1.22,1.22,0,0,0,.44-.1l.16.64a2.63,2.63,0,0,1-.81.15C184.64,36.78,184.32,36.2,184.32,35.33Z"/><path class="cls-3" d="M186.7,32.56h.87l.55,2.23c.08.4.15.78.23,1.17h0c.09-.39.17-.78.27-1.17l.58-2.23h.8l.59,2.23c.1.4.18.78.28,1.17h0c.08-.39.15-.77.24-1.17l.53-2.23h.81l-1.06,4.12h-1l-.52-2c-.1-.39-.17-.76-.26-1.19h0c-.08.43-.16.81-.26,1.2l-.5,2h-1Z"/><path class="cls-3" d="M193,34.62a2,2,0,1,1,3.88,0,2,2,0,1,1-3.88,0Zm3,0c0-.88-.4-1.46-1.06-1.46s-1,.58-1,1.46.4,1.45,1,1.45S196,35.49,196,34.62Z"/><path class="cls-3" d="M197.92,32.56h.7l.07.74h0a1.42,1.42,0,0,1,1.17-.85,1,1,0,0,1,.46.09l-.16.75a1.22,1.22,0,0,0-.41-.07c-.34,0-.74.23-1,.88v2.57h-.85Z"/><path class="cls-3" d="M201,30.71h.84v3.85h0l1.62-2h1L203,34.23l1.56,2.45h-.94l-1.12-1.87-.7.8v1.06H201Z"/><path class="cls-3" d="M211.26,36.78a4.25,4.25,0,0,1-1.31-.61,2.44,2.44,0,0,1-1.64.61,1.56,1.56,0,0,1-1.72-1.54,1.92,1.92,0,0,1,1.06-1.59,2.8,2.8,0,0,1-.36-1.24,1.3,1.3,0,0,1,1.34-1.35,1.08,1.08,0,0,1,1.17,1.14c0,.73-.61,1.18-1.22,1.62a7.08,7.08,0,0,0,1.31,1.37,4.46,4.46,0,0,0,.74-1.53h.79a6,6,0,0,1-1,1.94,3.75,3.75,0,0,0,1,.47Zm-2.85-.67a1.55,1.55,0,0,0,1-.37A7.78,7.78,0,0,1,208,34.24a1.31,1.31,0,0,0-.59,1A.93.93,0,0,0,208.41,36.1Zm-.17-2.83c.48-.31.87-.61.87-1.06,0-.3-.14-.55-.48-.55a.66.66,0,0,0-.62.74A2.09,2.09,0,0,0,208.24,33.27Z"/><path class="cls-3" d="M214,31.16h.87v5.51H214Z"/><path class="cls-3" d="M216.27,32.56h.7l.07.57h0a2,2,0,0,1,1.36-.67c.88,0,1.27.58,1.27,1.63v2.59h-.86V34.19c0-.71-.21-1-.7-1a1.41,1.41,0,0,0-1,.56v2.92h-.85Z"/><path class="cls-3" d="M222.94,31.4a1.12,1.12,0,0,0-.45-.1c-.37,0-.55.24-.55.74v.52h.83v.69h-.83v3.43h-.86V33.25h-.56V32.6l.56,0V32c0-.85.38-1.43,1.3-1.43a1.86,1.86,0,0,1,.73.14Z"/><path class="cls-3" d="M223.15,34.62a2,2,0,1,1,3.88,0,2,2,0,1,1-3.88,0Zm3,0c0-.88-.4-1.46-1.06-1.46s-1,.58-1,1.46.4,1.45,1,1.45S226.15,35.49,226.15,34.62Z"/><path class="cls-3" d="M228,32.56h.7l.07.74h0a1.42,1.42,0,0,1,1.17-.85,1,1,0,0,1,.46.09l-.16.75a1.22,1.22,0,0,0-.41-.07c-.34,0-.74.23-1,.88v2.57H228Z"/><path class="cls-3" d="M231.11,32.56h.7l.07.58h0a1.8,1.8,0,0,1,1.27-.68,1.1,1.1,0,0,1,1.14.76,1.9,1.9,0,0,1,1.34-.76c.86,0,1.27.58,1.27,1.63v2.59h-.86V34.19c0-.71-.22-1-.69-1a1.37,1.37,0,0,0-.93.56v2.92h-.86V34.19c0-.71-.22-1-.69-1a1.39,1.39,0,0,0-.93.56v2.92h-.85Z"/><path class="cls-3" d="M237.94,35.58c0-.88.75-1.34,2.46-1.53,0-.48-.18-.9-.79-.9a2.27,2.27,0,0,0-1.19.42L238.1,33a3.16,3.16,0,0,1,1.66-.54c1,0,1.5.65,1.5,1.75v2.48h-.7l-.07-.47h0a2,2,0,0,1-1.31.57A1.14,1.14,0,0,1,237.94,35.58Zm2.46,0v-1c-1.22.15-1.63.46-1.63.92s.28.57.64.57A1.45,1.45,0,0,0,240.4,35.61Z"/><path class="cls-3" d="M242.49,35.33V33.25h-.6V32.6l.64,0,.1-1.14h.73v1.14h1.07v.69h-1.07v2.09c0,.49.17.75.6.75a1.22,1.22,0,0,0,.44-.1l.16.64a2.63,2.63,0,0,1-.81.15C242.82,36.78,242.49,36.2,242.49,35.33Z"/><path class="cls-3" d="M245.21,31.28a.51.51,0,0,1,.55-.51.51.51,0,1,1-.55.51Zm.12,1.28h.85v4.12h-.85Z"/><path class="cls-3" d="M247.19,34.62a2,2,0,1,1,3.88,0,2,2,0,1,1-3.88,0Zm3,0c0-.88-.4-1.46-1.06-1.46s-1,.58-1,1.46.4,1.45,1,1.45S250.18,35.49,250.18,34.62Z"/><path class="cls-3" d="M252.08,32.56h.7l.07.57h0a2,2,0,0,1,1.36-.67c.88,0,1.27.58,1.27,1.63v2.59h-.86V34.19c0-.71-.21-1-.7-1a1.41,1.41,0,0,0-1,.56v2.92h-.85Z"/><path class="cls-3" d="M258.52,31.16h1l1,2.79c.13.37.24.74.37,1.12h0c.13-.37.23-.75.36-1.12l1-2.79h1v5.51h-.81V34c0-.49.07-1.21.11-1.71h0l-.44,1.27-1,2.63h-.54l-1-2.63-.43-1.27h0c0,.5.1,1.21.1,1.71v2.73h-.78Z"/><path class="cls-3" d="M264.43,35.58c0-.88.75-1.34,2.46-1.53,0-.48-.18-.9-.79-.9a2.27,2.27,0,0,0-1.19.42l-.32-.58a3.16,3.16,0,0,1,1.66-.54c1,0,1.5.65,1.5,1.75v2.48H267l-.07-.47h0a2,2,0,0,1-1.31.57A1.14,1.14,0,0,1,264.43,35.58Zm2.46,0v-1c-1.22.15-1.63.46-1.63.92s.28.57.64.57A1.45,1.45,0,0,0,266.89,35.61Z"/><path class="cls-3" d="M269,32.56h.7l.07.57h0a2,2,0,0,1,1.36-.67c.88,0,1.27.58,1.27,1.63v2.59h-.86V34.19c0-.71-.21-1-.7-1a1.41,1.41,0,0,0-1,.56v2.92H269Z"/><path class="cls-3" d="M273.41,35.58c0-.88.75-1.34,2.46-1.53,0-.48-.18-.9-.79-.9a2.27,2.27,0,0,0-1.19.42l-.32-.58a3.16,3.16,0,0,1,1.66-.54c1,0,1.5.65,1.5,1.75v2.48H276l-.07-.47h0a2,2,0,0,1-1.31.57A1.14,1.14,0,0,1,273.41,35.58Zm2.46,0v-1c-1.22.15-1.63.46-1.63.92s.28.57.64.57A1.45,1.45,0,0,0,275.88,35.61Z"/><path class="cls-3" d="M277.66,37.44a1.09,1.09,0,0,1,.6-.9v0a.76.76,0,0,1-.37-.68,1,1,0,0,1,.46-.76v0a1.41,1.41,0,0,1-.54-1.09,1.49,1.49,0,0,1,1.6-1.48,1.72,1.72,0,0,1,.6.1h1.46v.64h-.79a1.11,1.11,0,0,1,.27.76,1.41,1.41,0,0,1-1.54,1.42,1.44,1.44,0,0,1-.58-.13.54.54,0,0,0-.22.43c0,.25.17.4.69.4H280c1,0,1.48.3,1.48,1s-.84,1.44-2.16,1.44C278.38,38.53,277.66,38.16,277.66,37.44Zm3-.22c0-.34-.27-.45-.77-.45h-.62a2.58,2.58,0,0,1-.55-.06.74.74,0,0,0-.35.6c0,.4.42.64,1.1.64S280.7,37.61,280.7,37.22Zm-.52-3.29a.78.78,0,1,0-1.56,0,.79.79,0,1,0,1.56,0Z"/><path class="cls-3" d="M281.88,34.62a2,2,0,0,1,1.88-2.17c1.09,0,1.68.79,1.68,2a2.22,2.22,0,0,1,0,.43h-2.67A1.24,1.24,0,0,0,284,36.1a1.75,1.75,0,0,0,1-.31l.3.55a2.5,2.5,0,0,1-1.39.43A2,2,0,0,1,281.88,34.62Zm2.82-.37c0-.71-.32-1.12-.92-1.12a1.12,1.12,0,0,0-1.06,1.12Z"/><path class="cls-3" d="M286.4,32.56h.7l.07.58h0a1.8,1.8,0,0,1,1.27-.68,1.1,1.1,0,0,1,1.14.76,1.9,1.9,0,0,1,1.34-.76c.86,0,1.27.58,1.27,1.63v2.59h-.86V34.19c0-.71-.22-1-.69-1a1.37,1.37,0,0,0-.93.56v2.92h-.86V34.19c0-.71-.22-1-.69-1a1.39,1.39,0,0,0-.93.56v2.92h-.85Z"/><path class="cls-3" d="M293.17,34.62a2,2,0,0,1,1.88-2.17c1.09,0,1.68.79,1.68,2a2.22,2.22,0,0,1,0,.43H294a1.24,1.24,0,0,0,1.27,1.26,1.75,1.75,0,0,0,1-.31l.3.55a2.5,2.5,0,0,1-1.39.43A2,2,0,0,1,293.17,34.62Zm2.82-.37c0-.71-.32-1.12-.92-1.12A1.12,1.12,0,0,0,294,34.25Z"/><path class="cls-3" d="M297.7,32.56h.7l.07.57h0a2,2,0,0,1,1.36-.67c.88,0,1.27.58,1.27,1.63v2.59h-.86V34.19c0-.71-.21-1-.7-1a1.41,1.41,0,0,0-1,.56v2.92h-.85Z"/><path class="cls-3" d="M302.51,35.33V33.25h-.6V32.6l.64,0,.1-1.14h.73v1.14h1.07v.69h-1.07v2.09c0,.49.17.75.6.75a1.22,1.22,0,0,0,.44-.1l.16.64a2.63,2.63,0,0,1-.81.15C302.83,36.78,302.51,36.2,302.51,35.33Z"/><path class="cls-3" d="M306.81,33.9c0-1.78,1-2.84,2.4-2.84s2.4,1.06,2.4,2.84-1,2.88-2.4,2.88S306.81,35.67,306.81,33.9Zm3.91,0c0-1.3-.6-2.08-1.51-2.08s-1.51.79-1.51,2.08S308.29,36,309.2,36,310.72,35.19,310.72,33.9Z"/><path class="cls-3" d="M312.68,32.56h.7l.07.74h0a1.42,1.42,0,0,1,1.17-.85,1,1,0,0,1,.46.09l-.16.75a1.22,1.22,0,0,0-.41-.07c-.34,0-.74.23-1,.88v2.57h-.85Z"/><path class="cls-3" d="M315.37,37.44a1.09,1.09,0,0,1,.6-.9v0a.76.76,0,0,1-.37-.68,1,1,0,0,1,.46-.76v0a1.41,1.41,0,0,1-.54-1.09,1.49,1.49,0,0,1,1.6-1.48,1.72,1.72,0,0,1,.6.1h1.46v.64h-.79a1.11,1.11,0,0,1,.27.76,1.41,1.41,0,0,1-1.54,1.42,1.44,1.44,0,0,1-.58-.13.54.54,0,0,0-.22.43c0,.25.17.4.69.4h.76c1,0,1.48.3,1.48,1s-.84,1.44-2.16,1.44C316.09,38.53,315.37,38.16,315.37,37.44Zm3-.22c0-.34-.27-.45-.77-.45H317a2.58,2.58,0,0,1-.55-.06.74.74,0,0,0-.35.6c0,.4.42.64,1.1.64S318.4,37.61,318.4,37.22Zm-.52-3.29a.78.78,0,1,0-1.56,0,.79.79,0,1,0,1.56,0Z"/><path class="cls-3" d="M319.62,35.58c0-.88.75-1.34,2.46-1.53,0-.48-.18-.9-.79-.9a2.27,2.27,0,0,0-1.19.42l-.32-.58a3.16,3.16,0,0,1,1.66-.54c1,0,1.5.65,1.5,1.75v2.48h-.7l-.07-.47h0a2,2,0,0,1-1.31.57A1.14,1.14,0,0,1,319.62,35.58Zm2.46,0v-1c-1.22.15-1.63.46-1.63.92s.28.57.64.57A1.45,1.45,0,0,0,322.08,35.61Z"/><path class="cls-3" d="M324.17,32.56h.7l.07.57h0a2,2,0,0,1,1.36-.67c.88,0,1.27.58,1.27,1.63v2.59h-.86V34.19c0-.71-.21-1-.7-1a1.41,1.41,0,0,0-1,.56v2.92h-.85Z"/><path class="cls-3" d="M328.72,31.28a.51.51,0,0,1,.55-.51.51.51,0,1,1-.55.51Zm.12,1.28h.85v4.12h-.85Z"/><path class="cls-3" d="M330.62,36.21l2-3h-1.81v-.69h2.89V33l-2,3h2.1v.69h-3.18Z"/><path class="cls-3" d="M334.26,35.58c0-.88.75-1.34,2.46-1.53,0-.48-.18-.9-.79-.9a2.27,2.27,0,0,0-1.19.42l-.32-.58a3.16,3.16,0,0,1,1.66-.54c1,0,1.5.65,1.5,1.75v2.48h-.7l-.07-.47h0a2,2,0,0,1-1.31.57A1.14,1.14,0,0,1,334.26,35.58Zm2.46,0v-1c-1.22.15-1.63.46-1.63.92s.28.57.64.57A1.45,1.45,0,0,0,336.72,35.61Z"/><path class="cls-3" d="M338.81,35.33V33.25h-.6V32.6l.64,0,.1-1.14h.73v1.14h1.07v.69h-1.07v2.09c0,.49.17.75.6.75a1.22,1.22,0,0,0,.44-.1l.16.64a2.63,2.63,0,0,1-.81.15C339.13,36.78,338.81,36.2,338.81,35.33Z"/><path class="cls-3" d="M341.53,31.28a.51.51,0,0,1,.55-.51.51.51,0,1,1-.55.51Zm.12,1.28h.85v4.12h-.85Z"/><path class="cls-3" d="M343.5,34.62a2,2,0,1,1,3.88,0,2,2,0,1,1-3.88,0Zm3,0c0-.88-.4-1.46-1.06-1.46s-1,.58-1,1.46.4,1.45,1,1.45S346.5,35.49,346.5,34.62Z"/><path class="cls-3" d="M348.4,32.56h.7l.07.57h0a2,2,0,0,1,1.36-.67c.88,0,1.27.58,1.27,1.63v2.59H351V34.19c0-.71-.21-1-.7-1a1.41,1.41,0,0,0-1,.56v2.92h-.85Z"/></g></g></svg>